<svg xmlns="http://www.w3.org/2000/svg" width="387.573" height="389.864" viewBox="0 0 387.573 389.864">
    <g id="Group_7191" data-name="Group 7191" transform="translate(-973.214 -235.068)">
        <path id="Path_5120" data-name="Path 5120"
              d="M334.52,61.92H165.46a17.26,17.26,0,0,0-17.1,17.42v348a17.27,17.27,0,0,0,17.1,17.42H334.52a17.29,17.29,0,0,0,17.12-17.42v-348a17.28,17.28,0,0,0-17.12-17.42Zm6.42,354.67c0,9.16-6.86,16.57-15.32,16.57H174.38c-8.48,0-15.34-7.41-15.34-16.57V92.53C159,73.87,165.9,73,174.38,73h30.3c1.76,0,3.2,2,3.2,4.48v1.07c0,5.81,3.18,5.83,7.08,5.83H285c3.94,0,7.1,0,7.1-5.83V77.44c0-2.48,1.42-4.48,3.21-4.48H325.6c8.46,0,15.32,2.48,15.32,19.57Z"
              transform="translate(914.871 173.148)" fill="#37474f"/>
        <path id="Path_5121" data-name="Path 5121"
              d="M340.94,92.53V416.59c0,9.16-6.86,16.57-15.32,16.57H174.38c-8.48,0-15.34-7.41-15.34-16.57V92.53C159,73.87,165.9,73,174.38,73h30.3c1.76,0,3.2,2,3.2,4.48v1.07c0,5.81,3.18,5.83,7.08,5.83H285c3.94,0,7.1,0,7.1-5.83V77.44c0-2.48,1.42-4.48,3.21-4.48H325.6C334.08,73,340.94,75.44,340.94,92.53Z"
              transform="translate(914.871 173.148)" fill="#ebebeb"/>
        <path id="Path_5122" data-name="Path 5122"
              d="M340.94,92.53V228.75H159V92.53C159,73.87,165.9,73,174.38,73h30.3c1.76,0,3.2,2,3.2,4.48v1.07c0,5.81,3.18,5.83,7.08,5.83H285c3.94,0,7.1,0,7.1-5.83V77.44c0-2.48,1.42-4.48,3.21-4.48H325.6C334.08,73,340.94,75.44,340.94,92.53Z"
              transform="translate(914.871 173.148)" fill="#7ac3f0"/>
        <path id="Path_5123" data-name="Path 5123"
              d="M199.45,80.24l-.29.29c-.06,0-.11.11-.17.17a3.9,3.9,0,0,0-2.82-1.17,3.86,3.86,0,0,0-2.82,1.17l-.16-.17-.29-.29h0l.37-.32a4.059,4.059,0,0,1,.86-.55,4.181,4.181,0,0,1,1.13-.38,1.408,1.408,0,0,0,.57-.08h.88a4.509,4.509,0,0,1,1,.25,4.58,4.58,0,0,1,.71.33,4.48,4.48,0,0,1,.67.47l.31.28Z"
              transform="translate(914.871 173.148)" fill="#fff"/>
        <path id="Path_5124" data-name="Path 5124"
              d="M194.27,81.62c-.15-.16-.3-.31-.46-.46a3.32,3.32,0,0,1,4.71,0l-.46.46a2.68,2.68,0,0,0-3.79,0Z"
              transform="translate(914.871 173.148)" fill="#fff"/>
        <path id="Path_5125" data-name="Path 5125"
              d="M197.6,82.08l-.46.46a1.31,1.31,0,0,0-1-.4,1.35,1.35,0,0,0-1,.4l-.46-.46a2,2,0,0,1,2.92,0Z"
              transform="translate(914.871 173.148)" fill="#fff"/>
        <path id="Path_5126" data-name="Path 5126"
              d="M196.58,83a.41.41,0,0,1-.41.41.42.42,0,1,1,0-.83.41.41,0,0,1,.41.42Z"
              transform="translate(914.871 173.148)" fill="#fff"/>
        <path id="Path_5127" data-name="Path 5127" d="M170.9,81.12a1.21,1.21,0,1,1,1.21,1.21,1.21,1.21,0,0,1-1.21-1.21Z"
              transform="translate(914.871 173.148)" fill="#fff"/>
        <path id="Path_5128" data-name="Path 5128"
              d="M174.7,81.12a1.21,1.21,0,1,1,1.21,1.21A1.21,1.21,0,0,1,174.7,81.12Z"
              transform="translate(914.871 173.148)" fill="#fff"/>
        <path id="Path_5129" data-name="Path 5129" d="M178.5,81.12a1.2,1.2,0,1,1,.348.855,1.21,1.21,0,0,1-.348-.855Z"
              transform="translate(914.871 173.148)" fill="#fff"/>
        <path id="Path_5130" data-name="Path 5130" d="M182.3,81.12a1.2,1.2,0,1,1,.348.855A1.21,1.21,0,0,1,182.3,81.12Z"
              transform="translate(914.871 173.148)" fill="#fff"/>
        <path id="Path_5131" data-name="Path 5131"
              d="M186.09,81.12a1.21,1.21,0,1,1,1.21,1.21A1.21,1.21,0,0,1,186.09,81.12Z"
              transform="translate(914.871 173.148)" fill="#fff"/>
        <path id="Path_5132" data-name="Path 5132" d="M327.3,83.75h-9.82V79.21h9.82Zm-9.32-.5h8.82V79.71H318Z"
              transform="translate(914.871 173.148)" fill="#fff"/>
        <rect id="Rectangle_490" data-name="Rectangle 490" width="6.33" height="3"
              transform="translate(1233.171 253.128)" fill="#fff"/>
        <rect id="Rectangle_491" data-name="Rectangle 491" width="0.87" height="2.43"
              transform="translate(1242.171 253.418)" fill="#fff"/>
        <path id="Path_5133" data-name="Path 5133" d="M176.28,110.7l-5.37-5.03,5.37-5.03.83.88-4.42,4.15,4.42,4.15Z"
              transform="translate(914.871 173.148)" fill="#fff"/>
        <path id="Path_5134" data-name="Path 5134"
              d="M271,190.94a39.29,39.29,0,0,1-11.55,4.84A40.08,40.08,0,1,1,271,190.94Z"
              transform="translate(914.871 173.148)" fill="#fff"/>
        <path id="Path_5135" data-name="Path 5135"
              d="M262.17,152.29A12.19,12.19,0,1,1,250,140.1a12.19,12.19,0,0,1,12.17,12.19Z"
              transform="translate(914.871 173.148)" fill="#7ac3f0"/>
        <path id="Path_5136" data-name="Path 5136"
              d="M271,185.92v5a39.29,39.29,0,0,1-11.55,4.84,39.88,39.88,0,0,1-30.57-4.85v-5a21.06,21.06,0,1,1,42.12,0Z"
              transform="translate(914.871 173.148)" fill="#7ac3f0"/>
        <rect id="Rectangle_492" data-name="Rectangle 492" width="142.96" height="138.8"
              transform="translate(1093.391 388.018)" fill="#fff"/>
        <path id="Path_5137" data-name="Path 5137"
              d="M226.78,231.38l-3.67,8.74a.47.47,0,0,1-.08.14h0l-.08.09h0a.34.34,0,0,0-.11.07h0c-.05,0-.08.08-.14.09h-.58a.28.28,0,0,1-.14-.09h0l-.11-.07h0a.47.47,0,0,0-.06-.09h0a.45.45,0,0,1-.06-.14l-2-4.65-2,4.65a.45.45,0,0,1-.06.14h0l-.09.09h0a.18.18,0,0,0-.08.07h0a.742.742,0,0,1-.12.09h0a.21.21,0,0,0-.12,0h-.37a.26.26,0,0,0-.11,0h0a.34.34,0,0,1-.14-.09h0c-.05,0-.06-.06-.11-.07l-.08-.09h0a.186.186,0,0,0-.07-.14l-3.69-8.74a.823.823,0,1,1,1.52-.63l2.93,6.94,1.94-4.6a.82.82,0,0,1,.78-.51.86.86,0,0,1,.78.51l1.93,4.6,2.93-6.94a.83.83,0,0,1,1.09-.44.81.81,0,0,1,.17,1.07Z"
              transform="translate(914.871 173.148)" fill="#263238"/>
        <path id="Path_5138" data-name="Path 5138"
              d="M229.19,239.81V231a.81.81,0,0,1,.82-.83h4.9a.83.83,0,0,1,.83.83.85.85,0,0,1-.83.84h-4.06v2.74h3.49a.84.84,0,0,1,0,1.67h-3.49V239h4.06a.83.83,0,0,1,0,1.66H230a.81.81,0,0,1-.81-.85Z"
              transform="translate(914.871 173.148)" fill="#263238"/>
        <path id="Path_5139" data-name="Path 5139"
              d="M238.08,239.81V231a.83.83,0,0,1,.82-.83.85.85,0,0,1,.85.83v8h4.06a.83.83,0,0,1,0,1.66H238.9a.82.82,0,0,1-.82-.85Z"
              transform="translate(914.871 173.148)" fill="#263238"/>
        <path id="Path_5140" data-name="Path 5140"
              d="M245.46,235.23a5.5,5.5,0,0,1,5.5-5.4,5.67,5.67,0,0,1,3.47,1.17.89.89,0,0,1,.15,1.2.88.88,0,0,1-1.2.17,3.76,3.76,0,0,0-2.42-.83,4,4,0,0,0-2.7,1.08,3.72,3.72,0,0,0-1.09,2.61,3.66,3.66,0,0,0,1.09,2.61,4,4,0,0,0,2.7,1.08,3.79,3.79,0,0,0,2.42-.82.9.9,0,0,1,1.2.16.88.88,0,0,1-.15,1.2,5.61,5.61,0,0,1-3.47,1.17,5.48,5.48,0,0,1-5.5-5.4Z"
              transform="translate(914.871 173.148)" fill="#263238"/>
        <path id="Path_5141" data-name="Path 5141"
              d="M265.47,231.44a5.52,5.52,0,0,1,0,7.59,5,5,0,0,1-3.59,1.6,5.06,5.06,0,0,1-3.67-1.6,5.58,5.58,0,0,1,0-7.59,5,5,0,0,1,3.67-1.61A4.88,4.88,0,0,1,265.47,231.44Zm-.2,3.79a3.85,3.85,0,0,0-1-2.62,3.23,3.23,0,0,0-4.8,0,3.8,3.8,0,0,0-1,2.62,3.74,3.74,0,0,0,1,2.61,3.21,3.21,0,0,0,4.8,0A3.79,3.79,0,0,0,265.27,235.23Z"
              transform="translate(914.871 173.148)" fill="#263238"/>
        <path id="Path_5142" data-name="Path 5142"
              d="M278.37,231v8.85a.84.84,0,0,1-.84.82.82.82,0,0,1-.83-.82v-6.32l-2.16,3a.8.8,0,0,1-.67.35h0a.83.83,0,0,1-.69-.35l-2.15-3v6.32a.83.83,0,1,1-1.66,0V231a.83.83,0,0,1,.82-.83h0a.8.8,0,0,1,.66.35l3,4.14,3-4.14a.8.8,0,0,1,.67-.35h0a.86.86,0,0,1,.85.83Z"
              transform="translate(914.871 173.148)" fill="#263238"/>
        <path id="Path_5143" data-name="Path 5143"
              d="M281.25,239.81V231a.81.81,0,0,1,.82-.83H287a.83.83,0,0,1,.82.83.85.85,0,0,1-.82.84h-4.07v2.74h3.5a.84.84,0,0,1,0,1.67h-3.5V239H287a.83.83,0,0,1,0,1.66h-4.91a.82.82,0,0,1-.84-.85Z"
              transform="translate(914.871 173.148)" fill="#263238"/>
        <path id="Path_5144" data-name="Path 5144"
              d="M195.24,265.24V261.7a.33.33,0,0,1,.33-.33h2a.34.34,0,0,1,0,.67h-1.62v1.1h1.39a.33.33,0,1,1,0,.66h-1.39v1.11h1.62a.33.33,0,0,1,0,.66h-2a.33.33,0,0,1-.33-.33Z"
              transform="translate(914.871 173.148)" fill="#7ac3f0"/>
        <path id="Path_5145" data-name="Path 5145"
              d="M202.41,261.7v3.54a.34.34,0,0,1-.34.33.33.33,0,0,1-.33-.33v-2.52l-.86,1.2a.32.32,0,0,1-.27.13h0a.34.34,0,0,1-.28-.13l-.85-1.2v2.52a.34.34,0,0,1-.67,0V261.7a.33.33,0,0,1,.33-.33h0a.33.33,0,0,1,.26.14l1.19,1.66,1.2-1.66a.32.32,0,0,1,.27-.14h0a.35.35,0,0,1,.35.33Z"
              transform="translate(914.871 173.148)" fill="#7ac3f0"/>
        <path id="Path_5146" data-name="Path 5146"
              d="M205.61,264.58h-1.45l-.3.78a.34.34,0,0,1-.31.21.2.2,0,0,1-.11,0,.33.33,0,0,1-.2-.43l1.32-3.53a.34.34,0,0,1,.32-.21.32.32,0,0,1,.32.21l1.33,3.53a.34.34,0,0,1-.2.43.22.22,0,0,1-.12,0,.32.32,0,0,1-.3-.21Zm-.24-.66-.49-1.29-.48,1.29Z"
              transform="translate(914.871 173.148)" fill="#7ac3f0"/>
        <path id="Path_5147" data-name="Path 5147"
              d="M207.39,261.7a.33.33,0,0,1,.33-.33.34.34,0,0,1,.34.33v3.54a.34.34,0,0,1-.34.33.33.33,0,0,1-.33-.33Z"
              transform="translate(914.871 173.148)" fill="#7ac3f0"/>
        <path id="Path_5148" data-name="Path 5148"
              d="M209.18,265.24V261.7a.33.33,0,0,1,.33-.33.34.34,0,0,1,.34.33v3.21h1.62a.33.33,0,1,1,0,.66h-2a.33.33,0,0,1-.29-.33Z"
              transform="translate(914.871 173.148)" fill="#7ac3f0"/>
        <path id="Path_5149" data-name="Path 5149"
              d="M195,276.91a1.421,1.421,0,1,1,2.84-.11h0a.15.15,0,0,1-.15.14h-2.41a1.15,1.15,0,0,0,1.14,1.12,1.11,1.11,0,0,0,1-.53.15.15,0,0,1,.19-.05.16.16,0,0,1,.05.21,1.4,1.4,0,0,1-1.19.66,1.44,1.44,0,0,1-1.47-1.44Zm.3-.24h2.23a1.13,1.13,0,0,0-2.23,0Z"
              transform="translate(914.871 173.148)" fill="#263238"/>
        <path id="Path_5150" data-name="Path 5150"
              d="M203,276.63a.91.91,0,1,0-1.81,0v1.62h0a.12.12,0,0,1-.07.07.11.11,0,0,1-.07,0h0V276.7a.91.91,0,1,0-1.81,0v1.6a.14.14,0,0,1-.06.12H199a.15.15,0,0,1-.12-.11v-2.68a.14.14,0,1,1,.28,0v.28a1.18,1.18,0,0,1,.91-.42,1.21,1.21,0,0,1,1,.62,1.21,1.21,0,0,1,1.05-.62,1.19,1.19,0,0,1,1.2,1.19v1.6a.145.145,0,0,1-.29,0Z"
              transform="translate(914.871 173.148)" fill="#263238"/>
        <path id="Path_5151" data-name="Path 5151"
              d="M208.74,276.63a.91.91,0,1,0-1.82,0v1.62h0a.18.18,0,0,1-.08.07.08.08,0,0,1-.07,0h0V276.7a.91.91,0,1,0-1.81,0v1.6a.15.15,0,0,1-.07.12h-.06a.13.13,0,0,1-.12-.11v-2.68a.13.13,0,0,1,.13-.14.14.14,0,0,1,.15.14v.28a1.16,1.16,0,0,1,.9-.42,1.18,1.18,0,0,1,1.05.62,1.22,1.22,0,0,1,1.06-.62,1.19,1.19,0,0,1,1.19,1.19v1.6a.14.14,0,1,1-.28,0Z"
              transform="translate(914.871 173.148)" fill="#263238"/>
        <path id="Path_5152" data-name="Path 5152"
              d="M212.71,275.58v2.65a.15.15,0,0,1-.15.14.14.14,0,0,1-.14-.14v-.44a1.35,1.35,0,0,1-1.1.58,1.47,1.47,0,0,1,0-2.94,1.35,1.35,0,0,1,1.1.58v-.43a.14.14,0,0,1,.14-.15A.15.15,0,0,1,212.71,275.58Zm-.29,1.32a1.11,1.11,0,1,0-1.1,1.18,1.15,1.15,0,0,0,1.1-1.18Z"
              transform="translate(914.871 173.148)" fill="#263238"/>
        <path id="Path_5153" data-name="Path 5153"
              d="M214.23,279.23a.22.22,0,0,0,.22-.22v-3.43a.145.145,0,1,1,.29,0V279a.51.51,0,0,1-.51.51.14.14,0,0,1,0-.28Zm.23-4.61a.16.16,0,0,1,.15-.15.15.15,0,0,1,.14.15v.14a.15.15,0,0,1-.14.15.17.17,0,0,1-.15-.15Z"
              transform="translate(914.871 173.148)" fill="#263238"/>
        <path id="Path_5154" data-name="Path 5154"
              d="M218.51,275.58v2.65a.14.14,0,1,1-.28,0v-.44a1.39,1.39,0,0,1-1.11.58,1.47,1.47,0,0,1,0-2.94,1.39,1.39,0,0,1,1.11.58v-.43a.14.14,0,1,1,.28,0Zm-.28,1.32a1.11,1.11,0,1,0-1.11,1.18A1.15,1.15,0,0,0,218.23,276.9Z"
              transform="translate(914.871 173.148)" fill="#263238"/>
        <path id="Path_5155" data-name="Path 5155"
              d="M224,276.63a.91.91,0,0,0-1.82,0v1.62h0a.12.12,0,0,1-.07.07.1.1,0,0,1-.07,0h0V276.7a.91.91,0,1,0-1.81,0v1.6a.15.15,0,0,1-.07.12h-.06a.15.15,0,0,1-.12-.11v-2.68a.145.145,0,0,1,.29,0v.28a1.16,1.16,0,0,1,.9-.42,1.18,1.18,0,0,1,1.05.62,1.22,1.22,0,0,1,1.06-.62,1.19,1.19,0,0,1,1.19,1.19v1.6a.14.14,0,1,1-.28,0Z"
              transform="translate(914.871 173.148)" fill="#263238"/>
        <path id="Path_5156" data-name="Path 5156"
              d="M225.26,276.91a1.421,1.421,0,1,1,2.84-.11h0a.14.14,0,0,1-.14.14h-2.41a1.15,1.15,0,0,0,1.14,1.12,1.08,1.08,0,0,0,.94-.53.132.132,0,1,1,.2.16,1.39,1.39,0,0,1-1.18.66,1.45,1.45,0,0,1-1.39-1.44Zm.31-.24h2.22a1.13,1.13,0,0,0-1.1-.95,1.15,1.15,0,0,0-1.12.95Z"
              transform="translate(914.871 173.148)" fill="#263238"/>
        <path id="Path_5157" data-name="Path 5157"
              d="M228.92,277.76a.14.14,0,0,1,.2,0,1.6,1.6,0,0,0,.9.34.87.87,0,0,0,.56-.18.43.43,0,0,0,.22-.36.46.46,0,0,0-.21-.36,1.52,1.52,0,0,0-.59-.2h0a1.56,1.56,0,0,1-.67-.23.62.62,0,0,1-.32-.52.75.75,0,0,1,.32-.58,1.26,1.26,0,0,1,.72-.2,1.62,1.62,0,0,1,.88.32.17.17,0,0,1,0,.21.15.15,0,0,1-.2,0,1.26,1.26,0,0,0-.72-.3.91.91,0,0,0-.56.17.45.45,0,0,0-.18.34.35.35,0,0,0,.16.29,1.661,1.661,0,0,0,.6.21h0a2,2,0,0,1,.71.23.7.7,0,0,1,0,1.2,1.18,1.18,0,0,1-.73.23,1.75,1.75,0,0,1-1.08-.42.13.13,0,0,1-.01-.19Z"
              transform="translate(914.871 173.148)" fill="#263238"/>
        <path id="Path_5158" data-name="Path 5158"
              d="M234.25,277.51h-2.34a.16.16,0,0,1,0-.21l2.43-3h0a.13.13,0,0,1,.2,0,.15.15,0,0,1,0,.07v2.92h.28a.15.15,0,1,1,0,.29h-.28v.72a.15.15,0,0,1-.3,0Zm0-.29v-2.46l-2,2.46Z"
              transform="translate(914.871 173.148)" fill="#263238"/>
        <path id="Path_5159" data-name="Path 5159"
              d="M237.92,274.17a2.09,2.09,0,0,1,2.1,2.1,2.05,2.05,0,0,1-.22,1,1.06,1.06,0,0,1-.54.45h-.12a.42.42,0,0,1-.35-.16.5.5,0,0,1-.09-.29V277a1,1,0,0,1-.78.36,1.13,1.13,0,0,1,0-2.25,1.1,1.1,0,0,1,1.07,1.12v1h0a.38.38,0,0,0,0,.13.14.14,0,0,0,.11,0h0a.61.61,0,0,0,.35-.31,1.72,1.72,0,0,0,.2-.82,1.81,1.81,0,1,0-1.81,1.81,1.68,1.68,0,0,0,.45-.05c.08,0,.17,0,.17.1a.14.14,0,0,1-.1.18,2.18,2.18,0,0,1-.52.06,2.1,2.1,0,1,1,0-4.2Zm0,2.92a.8.8,0,0,0,.77-.82.77.77,0,1,0-1.53,0,.79.79,0,0,0,.76.82Z"
              transform="translate(914.871 173.148)" fill="#263238"/>
        <path id="Path_5160" data-name="Path 5160"
              d="M246.14,276.63a.91.91,0,1,0-1.81,0v1.62h0a.12.12,0,0,1-.07.07.11.11,0,0,1-.07,0h-.05V276.7a.91.91,0,1,0-1.81,0v1.6a.14.14,0,0,1-.06.12h-.06a.15.15,0,0,1-.12-.11v-2.68a.14.14,0,1,1,.28,0v.28a1.18,1.18,0,0,1,.91-.42,1.2,1.2,0,0,0,2.1,0,1.19,1.19,0,0,1,1.19,1.19v1.6a.13.13,0,0,1-.14.14.14.14,0,0,1-.14-.14Z"
              transform="translate(914.871 173.148)" fill="#263238"/>
        <path id="Path_5161" data-name="Path 5161"
              d="M250.11,275.58v2.65a.14.14,0,0,1-.14.14.15.15,0,0,1-.15-.14v-.44a1.35,1.35,0,0,1-1.1.58,1.47,1.47,0,0,1,0-2.94,1.35,1.35,0,0,1,1.1.58v-.43a.145.145,0,1,1,.29,0Zm-.29,1.32a1.1,1.1,0,1,0-1.1,1.18A1.15,1.15,0,0,0,249.82,276.9Z"
              transform="translate(914.871 173.148)" fill="#263238"/>
        <path id="Path_5162" data-name="Path 5162"
              d="M251.37,274.62a.145.145,0,1,1,.29,0v.14a.145.145,0,1,1-.29,0Zm0,1a.14.14,0,0,1,.14-.15.15.15,0,0,1,.15.15v2.65a.15.15,0,0,1-.15.14.14.14,0,0,1-.14-.14Z"
              transform="translate(914.871 173.148)" fill="#263238"/>
        <path id="Path_5163" data-name="Path 5163" d="M253,274.32a.145.145,0,1,1,.29,0v3.91a.145.145,0,0,1-.29,0Z"
              transform="translate(914.871 173.148)" fill="#263238"/>
        <path id="Path_5164" data-name="Path 5164" d="M254.65,277.77a.3.3,0,1,1-.3.3.3.3,0,0,1,.3-.3Z"
              transform="translate(914.871 173.148)" fill="#263238"/>
        <path id="Path_5165" data-name="Path 5165"
              d="M255.46,276.9a1.51,1.51,0,0,1,2.45-1.14.14.14,0,0,1,0,.2.15.15,0,0,1-.2,0,1.2,1.2,0,1,0-.76,2.1,1.24,1.24,0,0,0,.76-.25.145.145,0,1,1,.2.21,1.55,1.55,0,0,1-.93.31,1.48,1.48,0,0,1-1.52-1.43Z"
              transform="translate(914.871 173.148)" fill="#263238"/>
        <path id="Path_5166" data-name="Path 5166"
              d="M260.26,275.43a1.47,1.47,0,1,1-1.39,1.47,1.44,1.44,0,0,1,1.39-1.47Zm0,2.65a1.15,1.15,0,0,0,1.11-1.18,1.11,1.11,0,1,0-2.21,0,1.14,1.14,0,0,0,1.1,1.18Z"
              transform="translate(914.871 173.148)" fill="#263238"/>
        <path id="Path_5167" data-name="Path 5167"
              d="M267,276.63a.92.92,0,0,0-.91-.91.9.9,0,0,0-.9.91v1.62h0a.12.12,0,0,1-.07.07.11.11,0,0,1-.07,0H265V276.7a.91.91,0,1,0-1.81,0v1.6a.13.13,0,0,1-.07.12h-.06a.15.15,0,0,1-.12-.11v-2.68a.14.14,0,1,1,.28,0v.28a1.18,1.18,0,0,1,.91-.42,1.2,1.2,0,0,0,2.1,0,1.19,1.19,0,0,1,1.19,1.19v1.6a.14.14,0,1,1-.28,0Z"
              transform="translate(914.871 173.148)" fill="#263238"/>
        <path id="Path_5168" data-name="Path 5168"
              d="M194.62,281.74l13.84-.18,13.85-.11,27.69-.08,27.69.08,13.85.11,13.84.18-13.84.19-13.85.1-27.69.09-27.69-.09-13.85-.11Z"
              transform="translate(914.871 173.148)" fill="#dbdbdb"/>
        <path id="Path_5169" data-name="Path 5169"
              d="M196.65,297.69h-.74V299a.34.34,0,0,1-.67,0v-3.54a.33.33,0,0,1,.33-.33h1.08a1.28,1.28,0,0,1,0,2.56Zm-.74-.66h.74a.62.62,0,0,0,0-1.24h-.74Z"
              transform="translate(914.871 173.148)" fill="#7ac3f0"/>
        <path id="Path_5170" data-name="Path 5170"
              d="M200.46,298.33H199l-.29.78a.32.32,0,0,1-.31.21h-.12a.34.34,0,0,1-.19-.43l1.32-3.54a.36.36,0,0,1,.32-.21.35.35,0,0,1,.32.21l1.32,3.54a.34.34,0,0,1-.2.43h-.11a.32.32,0,0,1-.31-.21Zm-.25-.65-.48-1.29-.49,1.29Z"
              transform="translate(914.871 173.148)" fill="#7ac3f0"/>
        <path id="Path_5171" data-name="Path 5171"
              d="M202,298.28a.32.32,0,0,1,.44,0,1.89,1.89,0,0,0,1.14.46,1.31,1.31,0,0,0,.75-.22.54.54,0,0,0,.26-.43.38.38,0,0,0-.05-.19.51.51,0,0,0-.18-.18,2.41,2.41,0,0,0-.82-.29h0a3,3,0,0,1-.78-.23,1.35,1.35,0,0,1-.56-.47.9.9,0,0,1-.13-.49,1.11,1.11,0,0,1,.48-.88,1.77,1.77,0,0,1,1-.31,2.34,2.34,0,0,1,1.31.48.306.306,0,1,1-.34.51,1.78,1.78,0,0,0-1-.38,1.13,1.13,0,0,0-.67.2.48.48,0,0,0-.23.38.31.31,0,0,0,.05.17.47.47,0,0,0,.16.15,1.94,1.94,0,0,0,.75.27h0a3.85,3.85,0,0,1,.83.25,1.47,1.47,0,0,1,.6.5,1,1,0,0,1,.14.51,1.18,1.18,0,0,1-.52.93,1.9,1.9,0,0,1-1.11.34,2.61,2.61,0,0,1-1.53-.6.33.33,0,0,1,.01-.48Z"
              transform="translate(914.871 173.148)" fill="#7ac3f0"/>
        <path id="Path_5172" data-name="Path 5172"
              d="M205.9,298.28a.32.32,0,0,1,.44,0,1.92,1.92,0,0,0,1.15.46,1.31,1.31,0,0,0,.75-.22.52.52,0,0,0,.25-.43.3.3,0,0,0-.05-.19.51.51,0,0,0-.18-.18,2.33,2.33,0,0,0-.82-.29h0a3.089,3.089,0,0,1-.78-.23,1.32,1.32,0,0,1-.55-.47.91.91,0,0,1-.14-.49,1.11,1.11,0,0,1,.48-.88,1.8,1.8,0,0,1,1-.31,2.31,2.31,0,0,1,1.3.48.31.31,0,0,1,.09.42.3.3,0,0,1-.43.09,1.78,1.78,0,0,0-1-.38,1.19,1.19,0,0,0-.68.2.47.47,0,0,0-.22.38.31.31,0,0,0,0,.17.47.47,0,0,0,.16.15,2.08,2.08,0,0,0,.75.27h0a3.69,3.69,0,0,1,.83.25,1.47,1.47,0,0,1,.6.5,1,1,0,0,1,.14.51,1.17,1.17,0,0,1-.51.93,2,2,0,0,1-1.11.34,2.61,2.61,0,0,1-1.54-.6.33.33,0,0,1,.07-.48Z"
              transform="translate(914.871 173.148)" fill="#7ac3f0"/>
        <path id="Path_5173" data-name="Path 5173"
              d="M215.42,295.62l-1.47,3.5v.05h0a.13.13,0,0,1-.06,0h-.25a.09.09,0,0,1-.06,0h-.05v-.05l-.78-1.86-.79,1.86v.05h-.31a.1.1,0,0,1-.05,0h0v-.05l-1.47-3.5a.32.32,0,0,1,.18-.42.33.33,0,0,1,.43.17l1.17,2.78.77-1.84a.35.35,0,0,1,.32-.21.36.36,0,0,1,.31.21l.77,1.84,1.17-2.78a.34.34,0,0,1,.44-.17.32.32,0,0,1-.27.42Z"
              transform="translate(914.871 173.148)" fill="#7ac3f0"/>
        <path id="Path_5174" data-name="Path 5174"
              d="M219.6,295.65a2.19,2.19,0,0,1,0,3,1.962,1.962,0,0,1-2.9,0,2.21,2.21,0,0,1,0-3,2,2,0,0,1,1.47-.64,1.91,1.91,0,0,1,1.43.64Zm-.08,1.52a1.53,1.53,0,0,0-.41-1.05,1.308,1.308,0,0,0-1.94,0,1.54,1.54,0,0,0,0,2.09,1.308,1.308,0,0,0,1.94,0,1.52,1.52,0,0,0,.41-1.04Z"
              transform="translate(914.871 173.148)" fill="#7ac3f0"/>
        <path id="Path_5175" data-name="Path 5175"
              d="M224.17,298.83a.34.34,0,0,1-.21.42h-.14a.5.5,0,0,1-.24-.06.77.77,0,0,1-.19-.21,1.7,1.7,0,0,1-.12-.72.5.5,0,0,0-.08-.26.43.43,0,0,0-.18-.17,1.22,1.22,0,0,0-.33-.15H222V299a.33.33,0,0,1-.34.32.32.32,0,0,1-.32-.32v-3.54a.32.32,0,0,1,.32-.33h1.08a1.28,1.28,0,0,1,.81,2.27.88.88,0,0,1,.21.22,1.14,1.14,0,0,1,.2.65,1.279,1.279,0,0,0,0,.35.34.34,0,0,1,.21.21Zm-.84-2.41a.63.63,0,0,0-.62-.63H222V297h.74a.62.62,0,0,0,.59-.58Z"
              transform="translate(914.871 173.148)" fill="#7ac3f0"/>
        <path id="Path_5176" data-name="Path 5176"
              d="M225.14,299v-3.54a.32.32,0,0,1,.33-.33h.71a2.1,2.1,0,0,1,0,4.19h-.71a.32.32,0,0,1-.33-.32Zm.66-.34h.38a1.44,1.44,0,0,0,0-2.87h-.38Z"
              transform="translate(914.871 173.148)" fill="#7ac3f0"/>
        <path id="Path_5177" data-name="Path 5177"
              d="M195.84,308.93l-.55.37h-.1a.12.12,0,0,1,0-.24l.62-.3-.62-.29s-.09-.06-.09-.12a.13.13,0,0,1,.12-.12.17.17,0,0,1,.1,0l.55.38-.05-.66a.12.12,0,1,1,.24,0l-.05.66.54-.38h.1a.124.124,0,0,1,.04.24l-.62.29.62.3a.1.1,0,0,1,.08.11.12.12,0,0,1-.12.13.259.259,0,0,1-.1,0l-.54-.37.05.65a.12.12,0,1,1-.24,0Z"
              transform="translate(914.871 173.148)" fill="#263238"/>
        <path id="Path_5178" data-name="Path 5178"
              d="M198.42,308.93l-.55.37h-.1a.12.12,0,0,1,0-.24l.62-.3-.62-.29c-.05,0-.09-.06-.09-.12a.13.13,0,0,1,.12-.12.17.17,0,0,1,.1,0l.55.38v-.66a.12.12,0,1,1,.24,0l-.05.66.54-.38a.19.19,0,0,1,.1,0,.124.124,0,0,1,.04.24l-.62.29.62.3a.1.1,0,0,1,.08.11.12.12,0,0,1-.12.13h-.1l-.54-.37.05.65a.12.12,0,1,1-.24,0Z"
              transform="translate(914.871 173.148)" fill="#263238"/>
        <path id="Path_5179" data-name="Path 5179"
              d="M201,308.93l-.55.37h-.1a.12.12,0,0,1,0-.24l.62-.3-.62-.29s-.09-.06-.09-.12a.13.13,0,0,1,.12-.12.17.17,0,0,1,.1,0l.55.38L201,308a.12.12,0,1,1,.24,0l-.05.66.55-.38a.16.16,0,0,1,.09,0,.124.124,0,0,1,.04.24l-.62.29.62.3a.1.1,0,0,1,.08.11.12.12,0,0,1-.12.13.18.18,0,0,1-.09,0l-.55-.37.05.65a.12.12,0,1,1-.24,0Z"
              transform="translate(914.871 173.148)" fill="#263238"/>
        <path id="Path_5180" data-name="Path 5180"
              d="M203.58,308.93l-.55.37h-.1a.12.12,0,0,1,0-.24l.62-.3-.62-.29c-.05,0-.09-.06-.09-.12a.13.13,0,0,1,.12-.12.17.17,0,0,1,.1,0l.55.38-.05-.66a.12.12,0,1,1,.24,0l-.05.66.54-.38a.19.19,0,0,1,.1,0,.124.124,0,0,1,.04.24l-.62.29.62.3a.1.1,0,0,1,.08.11.12.12,0,0,1-.12.13h-.1l-.54-.37.05.65a.12.12,0,1,1-.24,0Z"
              transform="translate(914.871 173.148)" fill="#263238"/>
        <path id="Path_5181" data-name="Path 5181"
              d="M206.16,308.93l-.55.37h-.1a.12.12,0,1,1,0-.24l.62-.3-.62-.29s-.09-.06-.09-.12a.13.13,0,0,1,.12-.12.169.169,0,0,1,.1,0l.55.38v-.66a.12.12,0,1,1,.24,0v.66l.54-.38a.19.19,0,0,1,.1,0,.124.124,0,0,1,.04.24l-.62.29.62.3a.1.1,0,0,1,.08.11.12.12,0,0,1-.12.13h-.1l-.54-.37v.65a.12.12,0,1,1-.24,0Z"
              transform="translate(914.871 173.148)" fill="#263238"/>
        <path id="Path_5182" data-name="Path 5182"
              d="M208.74,308.93l-.55.37h-.1a.12.12,0,0,1,0-.24l.62-.3-.62-.29c-.05,0-.09-.06-.09-.12a.13.13,0,0,1,.12-.12.17.17,0,0,1,.1,0l.55.38-.05-.66a.12.12,0,1,1,.24,0l-.05.66.54-.38a.19.19,0,0,1,.1,0,.124.124,0,0,1,.04.24l-.62.29.62.3a.1.1,0,0,1,.08.11.12.12,0,0,1-.12.13h-.1l-.54-.37.05.65a.12.12,0,1,1-.24,0Z"
              transform="translate(914.871 173.148)" fill="#263238"/>
        <path id="Path_5183" data-name="Path 5183"
              d="M211.31,308.93l-.54.37h-.1a.12.12,0,0,1,0-.24l.61-.3-.61-.29s-.09-.06-.09-.12a.13.13,0,0,1,.12-.12.17.17,0,0,1,.1,0l.54.38v-.66a.11.11,0,0,1,.12-.13.12.12,0,0,1,.12.13v.66l.54-.38a.19.19,0,0,1,.1,0,.124.124,0,0,1,.04.24l-.62.29.62.3a.1.1,0,0,1,.08.11.12.12,0,0,1-.12.13h-.1l-.54-.37v.65a.12.12,0,0,1-.12.13.11.11,0,0,1-.12-.13Z"
              transform="translate(914.871 173.148)" fill="#263238"/>
        <path id="Path_5184" data-name="Path 5184"
              d="M213.9,308.93l-.55.37h-.1a.12.12,0,0,1,0-.24l.62-.3-.62-.29c-.05,0-.09-.06-.09-.12a.13.13,0,0,1,.12-.12.17.17,0,0,1,.1,0l.55.38-.05-.66a.12.12,0,1,1,.24,0l-.05.66.54-.38a.19.19,0,0,1,.1,0,.124.124,0,0,1,.04.24l-.62.29.62.3a.1.1,0,0,1,.08.11.12.12,0,0,1-.12.13h-.1l-.54-.37.05.65a.12.12,0,1,1-.24,0Z"
              transform="translate(914.871 173.148)" fill="#263238"/>
        <path id="Path_5185" data-name="Path 5185"
              d="M216.48,308.93l-.55.37h-.1a.12.12,0,0,1,0-.24l.61-.3-.61-.29c-.05,0-.09-.06-.09-.12a.13.13,0,0,1,.12-.12.17.17,0,0,1,.1,0l.55.38v-.66a.12.12,0,1,1,.24,0v.66l.54-.38a.19.19,0,0,1,.1,0,.124.124,0,0,1,.04.24l-.62.29.62.3a.1.1,0,0,1,.08.11.12.12,0,0,1-.12.13h-.1l-.54-.37v.65a.12.12,0,1,1-.24,0Z"
              transform="translate(914.871 173.148)" fill="#263238"/>
        <path id="Path_5186" data-name="Path 5186"
              d="M219.06,308.93l-.55.37h-.1a.12.12,0,0,1,0-.24l.62-.3-.62-.29s-.09-.06-.09-.12a.13.13,0,0,1,.12-.12.169.169,0,0,1,.1,0l.55.38L219,308a.12.12,0,1,1,.24,0l-.05.66.54-.38a.19.19,0,0,1,.1,0,.124.124,0,0,1,.04.24l-.62.29.62.3a.1.1,0,0,1,.08.11.12.12,0,0,1-.12.13h-.1l-.54-.37.05.65a.12.12,0,1,1-.24,0Z"
              transform="translate(914.871 173.148)" fill="#263238"/>
        <path id="Path_5187" data-name="Path 5187"
              d="M221.64,308.93l-.55.37h-.1a.12.12,0,0,1,0-.24l.62-.3-.62-.29c-.05,0-.09-.06-.09-.12a.13.13,0,0,1,.12-.12.17.17,0,0,1,.1,0l.55.38v-.66a.12.12,0,1,1,.24,0l-.05.66.55-.38a.14.14,0,0,1,.09,0,.124.124,0,0,1,.04.24l-.62.29.62.3a.1.1,0,0,1,.08.11.12.12,0,0,1-.12.13.15.15,0,0,1-.09,0l-.55-.37.05.65a.12.12,0,1,1-.24,0Z"
              transform="translate(914.871 173.148)" fill="#263238"/>
        <path id="Path_5188" data-name="Path 5188"
              d="M194.62,315.5l13.84-.19,13.85-.1,27.69-.09,27.69.09,13.85.1,13.84.19-13.84.18-13.85.1-27.69.09-27.69-.09-13.85-.1Z"
              transform="translate(914.871 173.148)" fill="#dbdbdb"/>
        <rect id="Rectangle_493" data-name="Rectangle 493" width="0.5" height="8.98"
              transform="translate(1138.031 477.668)" fill="#263238"/>
        <rect id="Rectangle_494" data-name="Rectangle 494" width="81.46" height="25.61"
              transform="translate(1124.141 514.018)" fill="#7ac3f0"/>
        <path id="Path_5189" data-name="Path 5189"
              d="M236.25,357v-5.31a.5.5,0,0,1,1,0v4.81h2.44a.5.5,0,0,1,0,1h-2.94A.5.5,0,0,1,236.25,357Z"
              transform="translate(914.871 173.148)" fill="#fff"/>
        <path id="Path_5190" data-name="Path 5190"
              d="M245.93,352a3.3,3.3,0,0,1,.91,2.28,3.26,3.26,0,0,1-.91,2.27,2.93,2.93,0,0,1-2.15,1,3,3,0,0,1-2.21-1,3.24,3.24,0,0,1-.89-2.27,3.28,3.28,0,0,1,.89-2.28,3,3,0,0,1,2.21-1,2.92,2.92,0,0,1,2.15,1Zm-.12,2.28a2.35,2.35,0,0,0-.61-1.58,1.94,1.94,0,0,0-2.88,0,2.3,2.3,0,0,0-.61,1.58,2.22,2.22,0,0,0,.61,1.56,2,2,0,0,0,1.46.65,1.93,1.93,0,0,0,1.42-.65,2.26,2.26,0,0,0,.61-1.56Z"
              transform="translate(914.871 173.148)" fill="#fff"/>
        <path id="Path_5191" data-name="Path 5191"
              d="M248.33,354.29a3.28,3.28,0,0,1,3.32-3.25,3.35,3.35,0,0,1,2.06.7.51.51,0,0,1,.09.73.52.52,0,0,1-.72.08,2.35,2.35,0,0,0-1.43-.49,2.26,2.26,0,0,0-1.62.66,2.16,2.16,0,0,0-.67,1.57,2.13,2.13,0,0,0,.67,1.54,2.22,2.22,0,0,0,1.62.66,2.481,2.481,0,0,0,1.24-.34v-1.23H251.6a.52.52,0,0,1-.51-.52.5.5,0,0,1,.51-.5h1.79a.51.51,0,0,1,.52.5v2.16h0a.49.49,0,0,1-.17.22,3.34,3.34,0,0,1-2,.7,3.27,3.27,0,0,1-3.41-3.19Z"
              transform="translate(914.871 173.148)" fill="#fff"/>
        <path id="Path_5192" data-name="Path 5192"
              d="M256,351.71a.48.48,0,0,1,.49-.49.5.5,0,0,1,.51.49V357a.51.51,0,0,1-.51.5.49.49,0,0,1-.49-.5Z"
              transform="translate(914.871 173.148)" fill="#fff"/>
        <path id="Path_5193" data-name="Path 5193"
              d="M259.67,357a.5.5,0,0,1-1,0v-5.23h0a.47.47,0,0,1,.2-.41.49.49,0,0,1,.68.11l2.91,4v-3.71a.5.5,0,0,1,1,0V357a.5.5,0,0,1-.49.5.47.47,0,0,1-.37-.18l-.05-.06-2.88-4Z"
              transform="translate(914.871 173.148)" fill="#fff"/>
        <path id="Path_5194" data-name="Path 5194"
              d="M224.14,375.91a.14.14,0,0,1,.14-.14h2.17a.14.14,0,0,1,.14.14.15.15,0,0,1-.14.15h-2v1.66h1.76a.15.15,0,0,1,0,.3h-1.76v1.8a.145.145,0,1,1-.29,0Z"
              transform="translate(914.871 173.148)" fill="#263238"/>
        <path id="Path_5195" data-name="Path 5195"
              d="M228.52,377a1.47,1.47,0,1,1-1.39,1.47A1.44,1.44,0,0,1,228.52,377Zm0,2.65a1.19,1.19,0,1,0-1.11-1.18,1.15,1.15,0,0,0,1.11,1.21Z"
              transform="translate(914.871 173.148)" fill="#263238"/>
        <path id="Path_5196" data-name="Path 5196"
              d="M230.89,377.18A.15.15,0,0,1,231,377a.14.14,0,0,1,.14.15v.57a1.46,1.46,0,0,1,1.18-.72.145.145,0,0,1,0,.29,1.07,1.07,0,0,0-.85.48,2.849,2.849,0,0,0-.36.68v1.29a.14.14,0,0,1-.14.15.15.15,0,0,1-.15-.15Z"
              transform="translate(914.871 173.148)" fill="#263238"/>
        <path id="Path_5197" data-name="Path 5197"
              d="M236.09,379.73a1.38,1.38,0,0,1-1.38,1.38,1.4,1.4,0,0,1-.61-.14.15.15,0,0,1-.06-.19.13.13,0,0,1,.19-.07,1,1,0,0,0,.48.11,1.09,1.09,0,0,0,1.1-1.09v-.36a1.33,1.33,0,0,1-1.1.58,1.46,1.46,0,1,1,0-2.92,1.35,1.35,0,0,1,1.1.57v-.43A.14.14,0,0,1,236,377a.13.13,0,0,1,.13.14Zm-.28-1.25a1.1,1.1,0,1,0-.515,1.039A1.1,1.1,0,0,0,235.81,378.48Z"
              transform="translate(914.871 173.148)" fill="#263238"/>
        <path id="Path_5198" data-name="Path 5198"
              d="M238.74,377a1.47,1.47,0,1,1-1.39,1.47,1.44,1.44,0,0,1,1.39-1.47Zm0,2.65a1.19,1.19,0,1,0-1.1-1.18,1.15,1.15,0,0,0,1.1,1.21Z"
              transform="translate(914.871 173.148)" fill="#263238"/>
        <path id="Path_5199" data-name="Path 5199"
              d="M242.15,377.17a.16.16,0,0,1-.15.15h-.37v2.14a.22.22,0,0,0,.21.21.15.15,0,1,1,0,.3.5.5,0,0,1-.51-.51v-2.14H241c-.14,0-.14-.08-.14-.15s0-.14.14-.14h.37v-1.09a.15.15,0,0,1,.14-.15.16.16,0,0,1,.16.15V377H242a.15.15,0,0,1,.15.17Z"
              transform="translate(914.871 173.148)" fill="#263238"/>
        <path id="Path_5200" data-name="Path 5200"
              d="M245.32,378.54v-1.37a.15.15,0,1,1,.3,0v.43a1.36,1.36,0,0,1,1.11-.57,1.43,1.43,0,0,1,1.42,1.45,1.45,1.45,0,0,1-1.42,1.47,1.37,1.37,0,0,1-1.11-.58v1.68a.15.15,0,0,1-.3,0Zm.3-.06a1.12,1.12,0,1,0,1.12-1.12,1.12,1.12,0,0,0-1.12,1.12Z"
              transform="translate(914.871 173.148)" fill="#263238"/>
        <path id="Path_5201" data-name="Path 5201"
              d="M251.75,377.17v2.65a.15.15,0,1,1-.29,0v-.44a1.36,1.36,0,0,1-1.1.59,1.47,1.47,0,1,1,0-2.94,1.35,1.35,0,0,1,1.1.57v-.43a.14.14,0,0,1,.14-.14.15.15,0,0,1,.15.14Zm-.29,1.33a1.11,1.11,0,1,0-1.1,1.18A1.15,1.15,0,0,0,251.46,378.5Z"
              transform="translate(914.871 173.148)" fill="#263238"/>
        <path id="Path_5202" data-name="Path 5202"
              d="M252.79,379.35a.14.14,0,0,1,.21,0,1.54,1.54,0,0,0,.9.34.86.86,0,0,0,.55-.18.45.45,0,0,0,.23-.36.46.46,0,0,0-.21-.36,1.47,1.47,0,0,0-.63-.22h0a1.65,1.65,0,0,1-.66-.23.61.61,0,0,1-.32-.53.74.74,0,0,1,.32-.58,1.3,1.3,0,0,1,.71-.19,1.62,1.62,0,0,1,.88.31.16.16,0,0,1,0,.21.14.14,0,0,1-.2,0,1.29,1.29,0,0,0-.72-.29.86.86,0,0,0-.55.16.46.46,0,0,0-.19.34.34.34,0,0,0,.17.29,1.43,1.43,0,0,0,.6.21h0a1.861,1.861,0,0,1,.71.24.7.7,0,0,1,.33.6.74.74,0,0,1-.33.59,1.23,1.23,0,0,1-.73.24,1.82,1.82,0,0,1-1.09-.42A.15.15,0,0,1,252.79,379.35Z"
              transform="translate(914.871 173.148)" fill="#263238"/>
        <path id="Path_5203" data-name="Path 5203"
              d="M255.69,379.35a.13.13,0,0,1,.2,0,1.57,1.57,0,0,0,.9.34.89.89,0,0,0,.56-.18.41.41,0,0,0,0-.72,1.47,1.47,0,0,0-.63-.22h0a1.65,1.65,0,0,1-.66-.23.61.61,0,0,1-.32-.53.74.74,0,0,1,.32-.58,1.34,1.34,0,0,1,.72-.19,1.62,1.62,0,0,1,.87.31.15.15,0,0,1,0,.21.13.13,0,0,1-.19,0,1.35,1.35,0,0,0-.72-.29.89.89,0,0,0-.56.16.46.46,0,0,0-.19.34.36.36,0,0,0,.17.29,1.43,1.43,0,0,0,.6.21h0a2,2,0,0,1,.72.24.72.72,0,0,1,.33.6.75.75,0,0,1-.34.59,1.18,1.18,0,0,1-.73.24,1.82,1.82,0,0,1-1.09-.42.14.14,0,0,1,.04-.17Z"
              transform="translate(914.871 173.148)" fill="#263238"/>
        <path id="Path_5204" data-name="Path 5204"
              d="M259.73,379.94l-.06-.06-1.1-2.63a.16.16,0,0,1,.07-.19.15.15,0,0,1,.19.08l1,2.32.67-1.62a.16.16,0,0,1,.29,0l.67,1.62,1-2.32a.14.14,0,0,1,.18-.08.15.15,0,0,1,.08.19l-1.1,2.61a.219.219,0,0,1-.05.08h-.07a.16.16,0,0,1-.12-.09h0l-.69-1.63-.68,1.62h0a.15.15,0,0,1-.13.09h-.05Z"
              transform="translate(914.871 173.148)" fill="#263238"/>
        <path id="Path_5205" data-name="Path 5205"
              d="M265,377a1.47,1.47,0,1,1-1.39,1.47A1.44,1.44,0,0,1,265,377Zm0,2.65a1.19,1.19,0,1,0-1.1-1.18,1.15,1.15,0,0,0,1.1,1.21Z"
              transform="translate(914.871 173.148)" fill="#263238"/>
        <path id="Path_5206" data-name="Path 5206"
              d="M267.4,377.18a.14.14,0,1,1,.28,0v.65l.05-.08a1.43,1.43,0,0,1,1.17-.72.145.145,0,1,1,0,.29,1.07,1.07,0,0,0-.85.48,2.42,2.42,0,0,0-.35.68h0v1.29a.14.14,0,1,1-.28,0Z"
              transform="translate(914.871 173.148)" fill="#263238"/>
        <path id="Path_5207" data-name="Path 5207"
              d="M272.23,379.4a1.42,1.42,0,0,1-1.13.57,1.47,1.47,0,1,1,0-2.94,1.39,1.39,0,0,1,1.13.57v-1.69a.15.15,0,0,1,.3,0v3.91a.15.15,0,1,1-.3,0Zm0-.85v-.1a1.17,1.17,0,1,0,0,.1Z"
              transform="translate(914.871 173.148)" fill="#263238"/>
        <path id="Path_5208" data-name="Path 5208"
              d="M274.52,378.24h0a.14.14,0,0,1,.14-.14,1,1,0,1,0-.87-1.49.16.16,0,0,1-.2.05.13.13,0,0,1,0-.19,1.27,1.27,0,0,1,1.11-.65,1.292,1.292,0,1,1,.15,2.58v.6a.15.15,0,0,1-.15.14.14.14,0,0,1-.14-.14Zm0,1.46a.15.15,0,1,1,.29,0v.13a.15.15,0,0,1-.15.14.14.14,0,0,1-.14-.14Z"
              transform="translate(914.871 173.148)" fill="#263238"/>
        <path id="Path_5209" data-name="Path 5209"
              d="M259.55,77.08H240.44a1.18,1.18,0,0,1-1.18-1.18h0a1.18,1.18,0,0,1,1.18-1.18h19.11a1.18,1.18,0,0,1,1.18,1.18h0A1.18,1.18,0,0,1,259.55,77.08Z"
              transform="translate(914.871 173.148)" fill="#fff"/>
        <path id="Path_5210" data-name="Path 5210" d="M340.31,129.43l-.4.1a.24.24,0,0,1,.07-.12h0Z"
              transform="translate(914.871 173.148)" fill="#263238"/>
        <path id="Path_5211" data-name="Path 5211" d="M371.34,178h0" transform="translate(914.871 173.148)" fill="none"
              stroke="#ff98b9" stroke-linecap="round" stroke-linejoin="round" stroke-width="0"/>
        <rect id="Rectangle_495" data-name="Rectangle 495" width="0.01" height="7.04"
              transform="translate(1266.501 333.978)" fill="#dd6a57"/>
        <path id="Path_5212" data-name="Path 5212" d="M351.64,160.83v0Z" transform="translate(914.871 173.148)"
              fill="#dd6a57"/>
        <path id="Path_5213" data-name="Path 5213" d="M371.34,178h0" transform="translate(914.871 173.148)" fill="none"
              stroke="#ff98b9" stroke-linecap="round" stroke-linejoin="round" stroke-width="0"/>
        <path id="Path_5214" data-name="Path 5214" d="M351.82,418.33h-.18v-.13Z" transform="translate(914.871 173.148)"
              fill="#dd6a57"/>
        <path id="Path_5215" data-name="Path 5215"
              d="M393.12,426.86c-2.2-1-50.6-44.76-51.39-47.6-.31-1.07,5.66-8.49,13.13-17.26,1.61-1.89,20.43-32,20.43-32l33.91,26.89-23.06,33.29s11,25.06,11.56,28.27S395.32,427.83,393.12,426.86Z"
              transform="translate(914.871 173.148)" fill="#dd6a57"/>
        <path id="Path_5216" data-name="Path 5216"
              d="M393.74,407.9a93.42,93.42,0,0,1,4,10.51c.52,3.21-2.38,9.42-4.58,8.45s-50.61-44.76-51.39-47.59c-.25-.88,3.62-5.93,9.09-12.48,9.78,11.36,40.62,46.72,42.88,43.43a4.389,4.389,0,0,0,0-2.32Z"
              transform="translate(914.871 173.148)" fill="#263238"/>
        <path id="Path_5217" data-name="Path 5217"
              d="M358.09,356.35l34.3,28.3s47.71-66.43,49.08-90.71c1-18.67-26.66-53.46-45.48-83.24-1.82-2.89-.71-13.85-.64-15.68l-37.29.07c-.45,4.2-3.37,25.33,2.91,35.62,12.92,21.16,33.78,51.87,34.58,58.52S358.09,356.35,358.09,356.35Z"
              transform="translate(914.871 173.148)" fill="#37474f"/>
        <path id="Path_5218" data-name="Path 5218"
              d="M394.6,374.25c-5.48-4.64-3.84-3.38-9.37-8-2.71-2.24-16.28-13.54-19.15-15.22-.07,0-.14.06-.09.11,2.22,2.47,16,13.48,18.78,15.68,5.61,4.48,4.05,3.13,9.71,7.55a.1.1,0,1,0,.12-.12Z"
              transform="translate(914.871 173.148)" fill="#263238"/>
        <path id="Path_5219" data-name="Path 5219"
              d="M398.85,283c-1.25-2.44-2.59-4.84-4-7.21-2.8-4.79-5.85-9.42-8.85-14.09q-4.69-7.32-9.4-14.62c-2.82-4.38-5.68-8.75-8.13-13.35a52.261,52.261,0,0,1-5.41-14.39c-1.1-5.54-.87-11.24-.39-16.84.12-1.4.25-2.79.38-4.19,0-.24-.39-.29-.42-.05a89.882,89.882,0,0,0-.79,16.55,44.37,44.37,0,0,0,3.82,14.69A101.809,101.809,0,0,0,373,242.8q4.5,7.095,9,14.13c3,4.7,6.13,9.51,9.12,14.31,1.46,2.33,2.89,4.68,4.25,7.07a71.426,71.426,0,0,1,3.8,7.25,11.751,11.751,0,0,1,1.05,3.93,9.64,9.64,0,0,1-.76,4.1c-1,2.57-2.34,5-3.56,7.5-2.44,4.93-4.92,9.84-7.48,14.71-5.14,9.77-19,32.77-19.73,33.95-.05.09.08.16.14.08,5.89-9.41,13.05-20.37,18.35-30.13q4-7.31,7.73-14.74,1.88-3.7,3.68-7.46c1.1-2.28,2.37-4.63,2.44-7.22S400,285.27,398.85,283Z"
              transform="translate(914.871 173.148)" fill="#263238"/>
        <path id="Path_5220" data-name="Path 5220"
              d="M394.05,195c-2.4,12.32-9.34,47.76-13.14,67.36-6.52-10.42-14.06-22-19.94-31.67-6.28-10.29-3.36-31.42-2.91-35.62Z"
              transform="translate(914.871 173.148)" fill="#263238"/>
        <path id="Path_5221" data-name="Path 5221"
              d="M401.31,451.53c-2.29.73-67.56-.19-70-1.8-.94-.61-1.36-10.12-1.54-21.63,0-2.48.55-40.37.55-40.37l43.66.49-2.13,40.35s24.84,11.53,27.35,13.59S403.6,450.8,401.31,451.53Z"
              transform="translate(914.871 173.148)" fill="#dd6a57"/>
        <path id="Path_5222" data-name="Path 5222"
              d="M389.25,436.88a95.067,95.067,0,0,1,9.92,5.28c2.51,2.06,4.43,8.64,2.14,9.36s-67.56-.18-70-1.79c-.77-.49-1.19-6.84-1.41-15.37,14.84,2.07,61.35,8.25,60.87,4.29C390.71,438.28,390.14,437.65,389.25,436.88Z"
              transform="translate(914.871 173.148)" fill="#263238"/>
        <path id="Path_5223" data-name="Path 5223"
              d="M395.35,195.09s-7.39,36-7.78,37.15a93.7,93.7,0,0,0-10.5,5.21l-2.64,183-47.08.31s5.84-97,5.67-103.24c-.26-10,4.07-77.64,3.47-79.34-6.15-17.36,3.5-43,3.5-43Z"
              transform="translate(914.871 173.148)" fill="#37474f"/>
        <path id="Path_5224" data-name="Path 5224"
              d="M372.66,411.72c-13.28-.57-39-.33-42.25.23-.07,0-.07.14,0,.15,3.29.53,34.5.59,42.25-.17a.11.11,0,0,0,0-.21Z"
              transform="translate(914.871 173.148)" fill="#263238"/>
        <path id="Path_5225" data-name="Path 5225"
              d="M338,365.14c.75-13.76,1.56-27.52,2.35-41.28s1.57-27.53,2.36-41.29c.39-6.88.76-13.76,1.18-20.64l.63-10.32a89.586,89.586,0,0,0,.44-10.22c-.19-3.72-1.82-7-2.75-10.55A41.372,41.372,0,0,1,341,220.51c0-7.18,1.45-14.28,2.82-21.29.08-.39.68-.22.6.17A102.746,102.746,0,0,0,341.53,219a42.119,42.119,0,0,0,.85,9.83c.67,3.1,2,6,2.8,9s.45,6.44.25,9.66c-.21,3.44-.38,6.88-.56,10.32-.37,6.74-.77,13.48-1.15,20.23-1.57,27.38-3.09,54.77-4.76,82.15C338,375.6,337.27,391,336,406.43c0,.11-.19.11-.18,0C336.34,392.66,337.24,378.9,338,365.14Z"
              transform="translate(914.871 173.148)" fill="#263238"/>
        <path id="Path_5226" data-name="Path 5226"
              d="M345.08,216.65c.79-.32,1.67-.42,2.48-.67a20.568,20.568,0,0,0,2.52-.93,19,19,0,0,0,4.32-2.71,10.08,10.08,0,0,0,2.76-4.17c.34-.85.66-1.71,1-2.57.16-.42.33-.85.5-1.27.06-.17.5-1.07.57-1.35a.08.08,0,0,1-.11,0h-.05a.09.09,0,0,1,0-.11c.05-.1.06-.11.17-.14a.11.11,0,0,1,.12.05c.17.28,0,.55-.06.85-.13.57-.26,1.13-.4,1.69-.25,1-.48,2-.76,2.94a9.9,9.9,0,0,1-2.76,4.79,15.45,15.45,0,0,1-4.82,2.88,17.137,17.137,0,0,1-2.79.82,7.59,7.59,0,0,1-2.68.2C344.92,216.89,345,216.7,345.08,216.65Z"
              transform="translate(914.871 173.148)" fill="#263238"/>
        <path id="Path_5227" data-name="Path 5227"
              d="M383.11,226.52c.08-1.65.18-3.29.3-4.94.26-3.76.59-7.53,1.18-11.24.05-.3.46-.19.44.08-.2,2.92-.49,5.84-.71,8.75s-.52,5.82-.52,8.72c0,.87.08,2.35,1.16,2.58,1.44.3,2.09-1.61,2.42-2.65a47.915,47.915,0,0,0,1.67-8c.42-3.07.62-6.17.86-9.25,0-.11.19-.1.2,0,.12,6.11.14,12.5-2,18.31a3.41,3.41,0,0,1-2.49,2.46h-.06v.1c0,.03-.07.35-.09.52s-.05.28-.08.43-.09.59-.16.89a.23.23,0,0,1-.45,0,.2.2,0,0,1-.13-.18,5,5,0,0,1,.37-1.74,2.15,2.15,0,0,1-1.6-1.3A7.61,7.61,0,0,1,383.11,226.52Z"
              transform="translate(914.871 173.148)" fill="#263238"/>
        <path id="Path_5228" data-name="Path 5228"
              d="M387.61,231.89a87,87,0,0,0-13.33,7.28c-.17.11,0,.37.14.27,4.5-2.28,9.1-4.48,13.47-7a.309.309,0,0,0-.28-.55Z"
              transform="translate(914.871 173.148)" fill="#263238"/>
        <path id="Path_5229" data-name="Path 5229"
              d="M375.74,327.9c0-.44.14-.61.16-.07.11,3,.07,7.39.1,10.43v10.72c0,3.57-.13,7.15-.27,10.73l-.22,5.35c-.07,1.24,0,3.68-.12,4.91,0,.55-.17.65-.22.1-.09-1.79-.09-3.22-.15-5l-.06-5.37V348.98c0-3.57.13-7.15.27-10.72S375.48,331.47,375.74,327.9Z"
              transform="translate(914.871 173.148)" fill="#263238"/>
        <path id="Path_5230" data-name="Path 5230"
              d="M399.23,144.31a.53.53,0,0,1-.39.59l-2.11.2c-2.11-5.24-4.33-9.39-3.73-7.76a28.94,28.94,0,0,1,1.65,7.94l-4.17.32c-2-9.27-4.42-16.11-4.2-14,.88,8.57.52,11.34.09,14.3-10.07.74-23.28,1.54-32.84,1.91-1.32-5.11-2.51-10.66-2.67-10.26-1.18,2.93-1.36,7.15-1.26,10.4-3.05.09-5.48.11-7,0,0,0-.89-4.31-1.05-5.73a31.41,31.41,0,0,1,.62-10.85,54.843,54.843,0,0,1,4-10.15v-.07h0a31.222,31.222,0,0,0,2.28-6.77.2.2,0,0,0,0-.05,30.84,30.84,0,0,0,.58-5.17c.18-6.36,3.3-11.92,8.81-13.73,10.09-10.86,20.83-6.64,24.35,1.42.34.79.68,1.69,1,2.68h0c1.23,3.64,2.39,8.38,3.43,12h0a38.393,38.393,0,0,0,1.42,4.22C391.12,122.47,397.36,126.09,399.23,144.31Z"
              transform="translate(914.871 173.148)" fill="#263238"/>
        <path id="Path_5231" data-name="Path 5231"
              d="M355.58,97.26a11.7,11.7,0,0,0-6.08,9.8,32.781,32.781,0,0,1-1.14,7.92,27.581,27.581,0,0,1-3.93,7,20.85,20.85,0,0,0-4.33,11.49c-.21,4.63.22,10.08,1.85,14.35h0a39.5,39.5,0,0,1-1.1-15c.59-5,3.12-8.27,5.68-12.15a21.4,21.4,0,0,0,3.58-10.36c.18-2.29.05-4.68.83-6.85.92-2.6,2.9-4.29,4.88-5.79A.238.238,0,1,0,355.58,97.26Z"
              transform="translate(914.871 173.148)" fill="#263238"/>
        <path id="Path_5232" data-name="Path 5232"
              d="M394.62,122.87c-2.73-3.54-5.55-6.55-7.25-11-1.54-4-2.51-8.31-4.08-12.34,0-.07-.11,0-.09,0,2.46,7.16,3.18,14.44,7.79,20.4,2.5,3.24,5,6.24,6.72,10.16a37.77,37.77,0,0,1,3,13,.11.11,0,1,0,.21,0,31,31,0,0,0-6.3-20.22Z"
              transform="translate(914.871 173.148)" fill="#263238"/>
        <path id="Path_5233" data-name="Path 5233"
              d="M418.93,103.23l-6.47,29.64c-.29.88.16,1.56,1,1.54l15.17-.48a2.47,2.47,0,0,0,2.06-1.64l6.48-29.63c.28-.88-.17-1.56-1-1.54L421,101.6a2.47,2.47,0,0,0-2.07,1.63Z"
              transform="translate(914.871 173.148)" fill="#37474f"/>
        <path id="Path_5234" data-name="Path 5234"
              d="M420.73,103.16l-6.47,29.64c-.29.87.16,1.56,1,1.53l15.18-.48a2.46,2.46,0,0,0,2.05-1.63L439,102.58c.28-.87-.17-1.56-1-1.53l-15.17.48A2.47,2.47,0,0,0,420.73,103.16Z"
              transform="translate(914.871 173.148)" fill="#455a64"/>
        <path id="Path_5235" data-name="Path 5235"
              d="M424.93,104.37a1.28,1.28,0,1,1-1.27-1.27,1.29,1.29,0,0,1,1.27,1.27Z"
              transform="translate(914.871 173.148)" fill="#263238"/>
        <path id="Path_5236" data-name="Path 5236"
              d="M371.44,149.31c9,18.09,28.83,41.4,36.81,41.33,3.8,0,10.59.71,15.48-3.76,10.65-9.77,19.32-28.18,20.93-38.64.57-3.73-17.64-11.34-20.23-8.26-6.08,7.21-13,21.24-14.11,21.18C406.23,161,390,148,378.59,138.91,364.8,127.85,367.85,142.1,371.44,149.31Z"
              transform="translate(914.871 173.148)" fill="#dd6a57"/>
        <path id="Path_5237" data-name="Path 5237"
              d="M444.67,129.07c-2.08-7.48-3.76-9.08-2.17-16.33,1.05-4.75-1.54-7.46-4.8-3.59-5.34,6.33-4.68,16.55-3.44,20Z"
              transform="translate(914.871 173.148)" fill="#dd6a57"/>
        <path id="Path_5238" data-name="Path 5238"
              d="M443.85,151.48s3.12-10.56,1.69-18.75c-1-5.66-4.51-17.75-20.57-23.8-3.81-1.44-10.25-.78-4.88,3.82,3.81,3.27,7.22,4.19,9.09,6.5,0,0-8.1,1.81-9.39,5.68a76,76,0,0,0-2.65,10.36,15.894,15.894,0,0,0,1.9.67s-.86,3.73,1.95,8.83Z"
              transform="translate(914.871 173.148)" fill="#dd6a57"/>
        <path id="Path_5239" data-name="Path 5239"
              d="M443.74,127.47c-2.34-1.89-7.38-5.83-12.61-7.62-5.82-2-17.56-4.24-19,.07-1,3.16,3.37,4.41,3.37,4.41s-5,.09-5.37,3.15c-.29,2.79,3.18,3.56,3.18,3.56s-3.06.58-2.82,3.32c.29,3.29,6.64,1.54,9.81,4.62C421,139.68,443.74,127.47,443.74,127.47Z"
              transform="translate(914.871 173.148)" fill="#dd6a57"/>
        <path id="Path_5240" data-name="Path 5240"
              d="M430.05,126.35a24.45,24.45,0,0,0-14.44-2.1c-.12,0-.17.13-.05.13a60.82,60.82,0,0,1,14.48,2S430.08,126.37,430.05,126.35Z"
              transform="translate(914.871 173.148)" fill="#263238"/>
        <path id="Path_5241" data-name="Path 5241"
              d="M427.88,132.16c-2.28-1-9.06-2.54-14.55-1.23-.12,0-.16.14,0,.13a64.46,64.46,0,0,1,14.57,1.16S427.91,132.17,427.88,132.16Z"
              transform="translate(914.871 173.148)" fill="#263238"/>
        <path id="Path_5242" data-name="Path 5242"
              d="M379.72,165.72l15-15.71s-11.2-10.23-19.42-14.22-9.57,1.35-6.16,9.58S379.72,165.72,379.72,165.72Z"
              transform="translate(914.871 173.148)" fill="#7ac3f0"/>
        <path id="Path_5243" data-name="Path 5243"
              d="M379.72,165.72l15-15.71s-11.2-10.23-19.42-14.22-9.57,1.35-6.16,9.58S379.72,165.72,379.72,165.72Z"
              transform="translate(914.871 173.148)" opacity="0.1"/>
        <path id="Path_5244" data-name="Path 5244"
              d="M393.58,181.38l7.05,33.07s-54.36,4.38-67.93,4.32c0,0,6.91-63.15,20.4-79.87,6.75-8.37,15.32-8.34,21.11-3.18,1.47,1.31,19.31,21.92,21.58,30.09C397.78,173,393.58,181.38,393.58,181.38Z"
              transform="translate(914.871 173.148)" fill="#ebebeb"/>
        <path id="Path_5245" data-name="Path 5245" d="M368.21,132.51h-5.77A12.23,12.23,0,0,1,368.21,132.51Z"
              transform="translate(914.871 173.148)" fill="#7ac3f0"/>
        <path id="Path_5246" data-name="Path 5246"
              d="M374.15,135.67H356.27c.25-.21.51-.41.77-.59h16.4C373.68,135.27,373.92,135.46,374.15,135.67Z"
              transform="translate(914.871 173.148)" fill="#7ac3f0"/>
        <path id="Path_5247" data-name="Path 5247" d="M377,138.83H353.16l.49-.59h22.86Z"
              transform="translate(914.871 173.148)" fill="#7ac3f0"/>
        <path id="Path_5248" data-name="Path 5248" d="M379.7,142H351c.11-.2.23-.4.36-.59h27.86Z"
              transform="translate(914.871 173.148)" fill="#7ac3f0"/>
        <path id="Path_5249" data-name="Path 5249" d="M382.29,145.15h-33c.09-.2.19-.4.29-.59h32.24Z"
              transform="translate(914.871 173.148)" fill="#7ac3f0"/>
        <path id="Path_5250" data-name="Path 5250" d="M384.79,148.31h-37c.09-.2.17-.4.25-.59h36.24Z"
              transform="translate(914.871 173.148)" fill="#7ac3f0"/>
        <path id="Path_5251" data-name="Path 5251" d="M387.2,151.47H346.59l.22-.6h39.94Z"
              transform="translate(914.871 173.148)" fill="#7ac3f0"/>
        <path id="Path_5252" data-name="Path 5252" d="M389.49,154.63h-44c.07-.21.13-.4.2-.6h43.4Z"
              transform="translate(914.871 173.148)" fill="#7ac3f0"/>
        <path id="Path_5253" data-name="Path 5253" d="M391.64,157.79H344.42l.2-.6h46.62Z"
              transform="translate(914.871 173.148)" fill="#7ac3f0"/>
        <path id="Path_5254" data-name="Path 5254"
              d="M393.57,161H343.48a2.155,2.155,0,0,1,.17-.6h49.57A2.375,2.375,0,0,1,393.57,161Z"
              transform="translate(914.871 173.148)" fill="#7ac3f0"/>
        <path id="Path_5255" data-name="Path 5255"
              d="M395.18,164.11H342.59c.05-.2.11-.4.16-.6h52.16Q395.06,163.81,395.18,164.11Z"
              transform="translate(914.871 173.148)" fill="#7ac3f0"/>
        <path id="Path_5256" data-name="Path 5256"
              d="M396.11,167.26H341.76l.15-.59H396A4.077,4.077,0,0,0,396.11,167.26Z"
              transform="translate(914.871 173.148)" fill="#7ac3f0"/>
        <path id="Path_5257" data-name="Path 5257" d="M396.33,169.83v.59H341a2.98,2.98,0,0,1,.14-.59Z"
              transform="translate(914.871 173.148)" fill="#7ac3f0"/>
        <path id="Path_5258" data-name="Path 5258"
              d="M396.12,173a2.911,2.911,0,0,1-.1.59H340.25a2.613,2.613,0,0,1,.13-.59Z"
              transform="translate(914.871 173.148)" fill="#7ac3f0"/>
        <path id="Path_5259" data-name="Path 5259"
              d="M395.47,176.15c-.05.2-.1.4-.16.59H339.54a3.121,3.121,0,0,1,.13-.59Z"
              transform="translate(914.871 173.148)" fill="#7ac3f0"/>
        <path id="Path_5260" data-name="Path 5260" d="M394.46,179.31l-.23.59H338.88a2.476,2.476,0,0,1,.12-.59Z"
              transform="translate(914.871 173.148)" fill="#7ac3f0"/>
        <path id="Path_5261" data-name="Path 5261" d="M393.94,183.06h-55.7a2.476,2.476,0,0,1,.12-.59h55.45Z"
              transform="translate(914.871 173.148)" fill="#7ac3f0"/>
        <path id="Path_5262" data-name="Path 5262" d="M394.61,186.22h-57a3.062,3.062,0,0,1,.11-.59h56.75Z"
              transform="translate(914.871 173.148)" fill="#7ac3f0"/>
        <path id="Path_5263" data-name="Path 5263" d="M395.29,189.38H337.05a4.174,4.174,0,0,1,.1-.6h58Z"
              transform="translate(914.871 173.148)" fill="#7ac3f0"/>
        <path id="Path_5264" data-name="Path 5264" d="M396,192.54H336.49a4.174,4.174,0,0,1,.1-.6h59.24Z"
              transform="translate(914.871 173.148)" fill="#7ac3f0"/>
        <path id="Path_5265" data-name="Path 5265" d="M396.63,195.7H336a3.133,3.133,0,0,1,.1-.6h60.4Z"
              transform="translate(914.871 173.148)" fill="#7ac3f0"/>
        <path id="Path_5266" data-name="Path 5266" d="M397.31,198.86H335.45l.09-.6h61.64Z"
              transform="translate(914.871 173.148)" fill="#7ac3f0"/>
        <path id="Path_5267" data-name="Path 5267" d="M398,202H335a4.174,4.174,0,0,1,.1-.6h62.8Z"
              transform="translate(914.871 173.148)" fill="#7ac3f0"/>
        <path id="Path_5268" data-name="Path 5268" d="M398.65,205.17H334.48l.09-.59h64Z"
              transform="translate(914.871 173.148)" fill="#7ac3f0"/>
        <path id="Path_5269" data-name="Path 5269" d="M399.33,208.33H334l.09-.59H399.2Z"
              transform="translate(914.871 173.148)" fill="#7ac3f0"/>
        <path id="Path_5270" data-name="Path 5270" d="M400,211.49H333.6c0-.19.06-.39.08-.59h66.19Z"
              transform="translate(914.871 173.148)" fill="#7ac3f0"/>
        <path id="Path_5271" data-name="Path 5271" d="M400.63,214.45l-2.48.2H333.2a1.762,1.762,0,0,1,.07-.59h67.28Z"
              transform="translate(914.871 173.148)" fill="#7ac3f0"/>
        <path id="Path_5272" data-name="Path 5272"
              d="M363.29,217.22c-3.08.21-6.14.41-9.09.59H332.81a1.851,1.851,0,0,1,.07-.59Z"
              transform="translate(914.871 173.148)" fill="#7ac3f0"/>
        <path id="Path_5273" data-name="Path 5273"
              d="M395.49,175.74a20.231,20.231,0,0,0,.42-6,28,28,0,0,0-4.07-11.39c-1.17-2-2.57-3.84-3.73-5.83a.05.05,0,0,1,.08-.06,41.809,41.809,0,0,1,3,4.08.609.609,0,0,0-.07-.14c-.32-.78-.65-1.55-1-2.31,0-.08.1-.15.14-.07.4.74.78,1.48,1.14,2.23.22.49.41,1,.58,1.48a37.473,37.473,0,0,1,3,5.46,18.91,18.91,0,0,1,1.41,12,21.471,21.471,0,0,1-2.73,6.17.08.08,0,0,1-.14-.07,29.9,29.9,0,0,0,2-5.59"
              transform="translate(914.871 173.148)" fill="#263238"/>
        <path id="Path_5274" data-name="Path 5274"
              d="M361.55,136.37c.41,1,6.53,7.12,11.34,6.14,1.56-.32.19-8.94.19-8.94v-.66l.62-9.23-11.53-5.1-1.65-.66V128.3a58.491,58.491,0,0,0,1.03,8.07Z"
              transform="translate(914.871 173.148)" fill="#dd6a57"/>
        <path id="Path_5275" data-name="Path 5275"
              d="M360.59,123.62a18.58,18.58,0,0,0,12.53,9.29l.62-9.23-11.53-5.1-1.65-.66S360.56,120.46,360.59,123.62Z"
              transform="translate(914.871 173.148)" fill="#263238"/>
        <path id="Path_5276" data-name="Path 5276"
              d="M385.11,109.82c1.69,16.15-7.79,19-11.27,19.34-3.16.33-14,1-17.32-14.84s3.62-21.78,10.82-22.91S383.42,93.67,385.11,109.82Z"
              transform="translate(914.871 173.148)" fill="#dd6a57"/>
        <path id="Path_5277" data-name="Path 5277"
              d="M381.52,106.34a10.434,10.434,0,0,1-1.11-.11,1.79,1.79,0,0,1-1.12-.34.58.58,0,0,1-.07-.7,1.42,1.42,0,0,1,1.37-.48,2.13,2.13,0,0,1,1.39.6.61.61,0,0,1-.46,1.03Z"
              transform="translate(914.871 173.148)" fill="#263238"/>
        <path id="Path_5278" data-name="Path 5278"
              d="M370.89,107.57a9.521,9.521,0,0,0,1.07-.34,1.78,1.78,0,0,0,1-.56.57.57,0,0,0-.07-.7,1.46,1.46,0,0,0-1.44-.19,2.14,2.14,0,0,0-1.24.88.61.61,0,0,0,.68.91Z"
              transform="translate(914.871 173.148)" fill="#263238"/>
        <path id="Path_5279" data-name="Path 5279"
              d="M373.74,111.42s-.08.06-.07.11c.17,1.09.19,2.37-.75,2.86v.06C374.12,114.13,374.08,112.43,373.74,111.42Z"
              transform="translate(914.871 173.148)" fill="#263238"/>
        <path id="Path_5280" data-name="Path 5280"
              d="M372.61,110.4c-1.78.1-1.46,3.65.19,3.56S374.11,110.32,372.61,110.4Z"
              transform="translate(914.871 173.148)" fill="#263238"/>
        <path id="Path_5281" data-name="Path 5281"
              d="M371.93,110.65c-.29.23-.56.61-.93.69s-.79-.27-1.11-.6c0,0-.06,0-.06.05.05.68.38,1.36,1.12,1.39s1.1-.61,1.21-1.31C372.18,110.74,372.05,110.56,371.93,110.65Z"
              transform="translate(914.871 173.148)" fill="#263238"/>
        <path id="Path_5282" data-name="Path 5282"
              d="M379.82,110.59a.088.088,0,0,1,.09.09c.06,1.11.31,2.36,1.33,2.65v.06C380,113.32,379.69,111.65,379.82,110.59Z"
              transform="translate(914.871 173.148)" fill="#263238"/>
        <path id="Path_5283" data-name="Path 5283"
              d="M380.71,109.36c1.76-.28,2.19,3.27.56,3.52S379.23,109.6,380.71,109.36Z"
              transform="translate(914.871 173.148)" fill="#263238"/>
        <path id="Path_5284" data-name="Path 5284"
              d="M381.48,109.51c.3.15.62.46.95.44s.64-.44.84-.84h.06c.1.68,0,1.41-.67,1.62s-1.09-.34-1.33-1C381.28,109.65,381.35,109.44,381.48,109.51Z"
              transform="translate(914.871 173.148)" fill="#263238"/>
        <path id="Path_5285" data-name="Path 5285"
              d="M374.63,120.22c.28.24.56.59,1,.6a2.71,2.71,0,0,0,1.17-.33s.07,0,.05.06a1.48,1.48,0,0,1-1.37.66,1.18,1.18,0,0,1-.91-.94C374.51,120.21,374.59,120.18,374.63,120.22Z"
              transform="translate(914.871 173.148)" fill="#263238"/>
        <path id="Path_5286" data-name="Path 5286"
              d="M378.83,115.77s.39,1.62.47,2.4c0,.07-.18.12-.44.17h0a3.72,3.72,0,0,1-3.72-1c-.06-.07,0-.16.11-.12a5.62,5.62,0,0,0,3.46.62c0-.22-.77-2.75-.65-2.77a6.55,6.55,0,0,1,1.8.22c-.72-3.4-2-6.65-2.65-10a.11.11,0,0,1,.2-.07,56.83,56.83,0,0,1,3.32,10.7C380.8,116.29,379.15,115.87,378.83,115.77Z"
              transform="translate(914.871 173.148)" fill="#263238"/>
        <path id="Path_5287" data-name="Path 5287"
              d="M378.67,118.15a4.38,4.38,0,0,1-1.55,1.58,2,2,0,0,1-1.18.24c-.89-.11-1-.89-.95-1.59a4.659,4.659,0,0,1,.24-1.08,5.67,5.67,0,0,0,3.44.85Z"
              transform="translate(914.871 173.148)" fill="#263238"/>
        <path id="Path_5288" data-name="Path 5288"
              d="M377.12,119.73a2,2,0,0,1-1.18.24c-.89-.11-1-.89-.95-1.59a2.05,2.05,0,0,1,2.13,1.35Z"
              transform="translate(914.871 173.148)" fill="#ff9abb"/>
        <path id="Path_5289" data-name="Path 5289"
              d="M357.75,113.63c3,.49,4-6.28,4-6.28s12.74-1.63,14.22-11.88a17.48,17.48,0,0,0,8.41,9.89s0-11.31-8.85-13.86c0,0-10.94-4.5-17.54,4.07S355.77,113.3,357.75,113.63Z"
              transform="translate(914.871 173.148)" fill="#263238"/>
        <path id="Path_5290" data-name="Path 5290"
              d="M376,94.71a11.24,11.24,0,0,1-.76,4.68,11.76,11.76,0,0,1-2.55,4.06,11.517,11.517,0,0,1-.89.82l-.45.4-.5.34c-.34.22-.67.45-1,.65a12.021,12.021,0,0,1-1.08.53c-.18.08-.36.18-.54.25l-.57.2-1.13.38c-.77.18-1.55.32-2.33.45.74-.29,1.5-.49,2.22-.78l1.07-.47.53-.23.5-.29c.34-.2.67-.39,1-.57a9.929,9.929,0,0,0,.93-.67l.47-.34.42-.38a8.886,8.886,0,0,0,.83-.79,13.92,13.92,0,0,0,3.36-6,13.479,13.479,0,0,0,.47-2.24Z"
              transform="translate(914.871 173.148)" fill="#263238"/>
        <path id="Path_5291" data-name="Path 5291"
              d="M359.58,115s-3.63-5-5.91-3.7.52,8.6,3.24,9.56a2.75,2.75,0,0,0,3.65-1.54Z"
              transform="translate(914.871 173.148)" fill="#dd6a57"/>
        <path id="Path_5292" data-name="Path 5292"
              d="M354.52,113.41v.07c1.91.74,2.94,2.47,3.67,4.28a1.52,1.52,0,0,0-2.28-.37s0,.11.05.1a1.68,1.68,0,0,1,1.87.55,8.791,8.791,0,0,1,.92,1.49c.09.17.4.07.33-.12h0C359.06,117,357.12,113.61,354.52,113.41Z"
              transform="translate(914.871 173.148)" fill="#263238"/>
        <path id="Path_5293" data-name="Path 5293"
              d="M359.26,95.39c1.45-.54,2.83-8.65-2.5-12.52s-12.16.55-9.3,7.2C349.27,94.27,356.19,96.53,359.26,95.39Z"
              transform="translate(914.871 173.148)" fill="#263238"/>
        <path id="Path_5294" data-name="Path 5294"
              d="M349.3,82.4a9.07,9.07,0,0,0-3.07,5.14,5.46,5.46,0,0,0,1.62,5.22,10.94,10.94,0,0,0,5.29,2.59,16.419,16.419,0,0,0,3.05.38,8.64,8.64,0,0,0,3.07-.34,7.34,7.34,0,0,1-3.05.9,13.35,13.35,0,0,1-3.22-.05,10.61,10.61,0,0,1-5.94-2.64,6.38,6.38,0,0,1-1.76-2.91,6.59,6.59,0,0,1,.06-3.36,8,8,0,0,1,3.95-4.93Z"
              transform="translate(914.871 173.148)" fill="#263238"/>
        <path id="Path_5295" data-name="Path 5295"
              d="M352.1,140.18c-13.38,20.13-20.94,46.93-20,52.83,1.08,6.49,10.24,28.43,19.68,38.1,2.49,2.55,21.35-18.37,18.8-21.2-4.91-5.46-14.66-21.55-15.09-25.22-.4-3.39,4.54-25.2,5.84-37.6C362.63,135.18,358.32,130.81,352.1,140.18Z"
              transform="translate(914.871 173.148)" fill="#dd6a57"/>
        <path id="Path_5296" data-name="Path 5296"
              d="M370,209.24s10.24,4.5,16.8,7.76c3.66,1.82,9.66,5.5,11.74,8.07,3.1,3.83,13.65,21.87,9.33,24.52-3.91,2.4-11-14.24-11-14.24s8.64,16.16,3.4,18.19-10.75-17.86-10.75-17.86,8.51,16.81,2.78,18c-4.3.98-10.3-16.74-10.3-16.74s7.21,14.5,2.8,15.65c-4.88,1.27-11.45-14.74-11.45-14.74-11.71,1-17.71-3.27-21.61-6.83C350.78,230.16,370,209.24,370,209.24Z"
              transform="translate(914.871 173.148)" fill="#dd6a57"/>
        <path id="Path_5297" data-name="Path 5297"
              d="M394.27,229.56c1.08,1.86,2.19,3.74,3.11,5.69a64.669,64.669,0,0,1,2.49,6,36.792,36.792,0,0,1,2.08,8.16c-1-4.9-4.2-11.94-5.12-13.89s-1.73-4-2.64-5.9C394.17,229.55,394.24,229.52,394.27,229.56Z"
              transform="translate(914.871 173.148)" fill="#263238"/>
        <path id="Path_5298" data-name="Path 5298"
              d="M387.16,232.74c1.28,2.43,2.64,4.81,3.82,7.3s2,4.94,3,7.5c.07.2-.06.17-.14,0-1.1-2.52-2.3-4.76-3.43-7.26s-2.15-5-3.36-7.5C387.08,232.72,387.14,232.7,387.16,232.74Z"
              transform="translate(914.871 173.148)" fill="#263238"/>
        <path id="Path_5299" data-name="Path 5299"
              d="M380.57,234.36a62.1,62.1,0,0,1,5,11.62c.07.2-.1.15-.18,0-1.58-3.89-2.8-7-4.93-11.49C380.41,234.37,380.52,234.29,380.57,234.36Z"
              transform="translate(914.871 173.148)" fill="#263238"/>
        <path id="Path_5300" data-name="Path 5300"
              d="M339.24,160.83l21.32,4.11s2.55-14.95,1.46-24-6.31-7.31-11.38,0S339.24,160.83,339.24,160.83Z"
              transform="translate(914.871 173.148)" fill="#7ac3f0"/>
        <path id="Path_5301" data-name="Path 5301"
              d="M339.24,160.83l21.32,4.11s2.55-14.95,1.46-24-6.31-7.31-11.38,0S339.24,160.83,339.24,160.83Z"
              transform="translate(914.871 173.148)" opacity="0.1"/>
        <path id="Path_5302" data-name="Path 5302"
              d="M121.6,343.45c-1.16,4.93-2.39,9.78-2.63,14.84.14.25.11,1.17,0,.92,0,.82-1.27.67-1.27-.14v-1.55c-2.9-3.61-7.11-5.89-10.51-9a19.76,19.76,0,0,1-5.76-9.17c-2.82-9.73-.18-20-3.57-29.75-2.93-8.36-8.18-15.64-12.62-23.22-4.69-8-8.15-16.44-8.5-25.83-.27-7.19.58-16.77,6.06-22.15,5.8-5.72,13-1.44,17.45,3.66,12.88,14.79,18.84,33.48,21.25,52.59,1.33,10.58,2.71,21.22,2.39,31.89a86,86,0,0,1-2.29,16.91Z"
              transform="translate(914.871 173.148)" fill="#7ac3f0"/>
        <path id="Path_5303" data-name="Path 5303"
              d="M119,362.18a182.85,182.85,0,0,0-.35-30,.929.929,0,0,0,0-.1c.16-8.1.8-16.17.48-24.28a143.87,143.87,0,0,0-3.56-26c0-.1-.18-.07-.16,0a170.1,170.1,0,0,1,2.82,25.46q.24,6.87-.11,13.73c-.08,1.49-.22,3-.32,4.49h0a160.16,160.16,0,0,0-24.1-63.77c-.16-.26-.63,0-.47.29a166.421,166.421,0,0,1,19.62,47.28c-6.2-11.48-15.56-20.92-22.5-31.95,0-.06-.14,0-.11.06,6.24,12.29,16.55,22,23.12,34.07,1.13,4.93,2.07,9.91,2.76,14.92a167.311,167.311,0,0,1,1.5,20.72c-3.78-7.05-7.7-13.8-10.78-21.26a.163.163,0,0,0-.3.13c2.62,7.75,6.15,16.1,11.1,22.71q0,7.36-.41,14.72c-.77,13.08-3,26-4,39a.3.3,0,0,0,.6.07A298.613,298.613,0,0,0,119,362.18Z"
              transform="translate(914.871 173.148)" fill="#263238"/>
        <path id="Path_5304" data-name="Path 5304"
              d="M105.14,261.29c0-.09-.18,0-.15.07,2.39,6.61,3.74,13.3,5.47,20.07a.25.25,0,0,0,.49-.08C110.25,274.48,107.8,267.63,105.14,261.29Z"
              transform="translate(914.871 173.148)" fill="#263238"/>
        <path id="Path_5305" data-name="Path 5305"
              d="M165.81,289a101.341,101.341,0,0,1-5.49,11.29c-4.31,7.81-8.79,15-9.61,24.07-.36,4.06-.49,8.14-1.73,12a35.771,35.771,0,0,1-4.8,9.44c-4.66,6.79-10.49,12.65-14.81,19.7a82.73,82.73,0,0,0-9.85,23.73c-.1.46-.82.33-.72-.12a.449.449,0,0,0,0-.11.11.11,0,0,1,0-.09c-.69-19.51.87-39.17,6.82-57.86A200.25,200.25,0,0,1,135.06,307c3.19-6.77,7.16-13.29,12.76-18.35,3.63-3.27,11.5-9.47,16.67-6.19C167,284.06,166.79,286.55,165.81,289Z"
              transform="translate(914.871 173.148)" fill="#7ac3f0"/>
        <path id="Path_5306" data-name="Path 5306"
              d="M146.21,333.21a161.876,161.876,0,0,1-11.34,16.3c-1.89,2.46-3.8,4.91-5.69,7.38-.89,1.16-1.89,2.32-2.71,3.58.52-2.05,1-4.11,1.54-6.16,2.52-9.85,4.94-19.8,8.69-29.27,3.66-9.27,8.54-18,13.54-26.56.14-.22-.23-.39-.36-.17-4.12,6.78-8.31,13.55-11.77,20.7a107.815,107.815,0,0,0-5,12.28,190.633,190.633,0,0,1,6.65-26.24c0-.08-.08-.13-.11-.05a89.541,89.541,0,0,0-6.91,27.29h0q-1.27,3.8-2.35,7.67c-3.07,10.91-5.77,21.94-8.27,33a118,118,0,0,1,1.88-21.7c0-.16-.22-.2-.26,0a68.84,68.84,0,0,0-1.88,22.87q-1.42,6.32-2.77,12.63c-1.91,9-4.27,18.15-5.39,27.28a.182.182,0,1,0,.36.06c1.34-4.92,2.15-10,3.24-15s2.23-10,3.39-15q2.55-10.89,5.28-21.73c1.21-2.65,3.54-5,5.29-7.22,1.92-2.44,3.84-4.88,5.71-7.36a109.478,109.478,0,0,0,9.39-14.53C146.44,333.18,146.27,333.11,146.21,333.21Z"
              transform="translate(914.871 173.148)" fill="#263238"/>
        <path id="Path_5307" data-name="Path 5307"
              d="M147,324.87a101.76,101.76,0,0,0-11,17.62c0,.08.08.17.13.09,3.73-5.85,7.4-11.75,11.13-17.6A.161.161,0,0,0,147,324.87Z"
              transform="translate(914.871 173.148)" fill="#263238"/>
        <path id="Path_5308" data-name="Path 5308"
              d="M64,307.48c2.53,4.36,5.41,9.58,4.33,14.81-.69,3.31-3.11,6-3.55,9.37-1,7.45,6.44,12.38,11.82,15.9,13.39,8.79,31.76,16.62,34.2,34.57.09.64,1.19.48,1.11-.15a.26.26,0,0,0,0-.11s.07-.06.07-.11a68.93,68.93,0,0,0-.25-27.41c-2-9.25-6-17.56-10.8-25.69-8.06-13.75-16.6-27.84-28.79-38.37-3.37-2.91-10.28-8.16-13-1.58C56.53,295.11,60.9,302.17,64,307.48Z"
              transform="translate(914.871 173.148)" fill="#7ac3f0"/>
        <path id="Path_5309" data-name="Path 5309"
              d="M76.26,336.64c8.88,9.61,23,15,30.64,25.77-4.53-16.5-12-31.35-23.55-44.24a.35.35,0,0,1,.49-.49,87.16,87.16,0,0,1,19.25,27.88,124.559,124.559,0,0,0-8.29-21.2.23.23,0,0,1,.39-.23A80.729,80.729,0,0,1,104.12,348c10.08,24.38,11,53,8.9,78.68a.29.29,0,0,1-.58,0c.58-20.25.25-40.86-4.6-60.64-.1-.42-.22-.82-.32-1.23-8.32-11.6-22.38-17-31.42-28C76,336.69,76.16,336.53,76.26,336.64Z"
              transform="translate(914.871 173.148)" fill="#263238"/>
        <path id="Path_5310" data-name="Path 5310"
              d="M74.2,328.38c4.66,4.28,9.25,8.65,13.92,12.93,0,0,0,.12-.07.09a68.51,68.51,0,0,1-14.13-12.74.2.2,0,0,1,.28-.28Z"
              transform="translate(914.871 173.148)" fill="#263238"/>
        <path id="Path_5311" data-name="Path 5311"
              d="M73.46,309.85a147.488,147.488,0,0,0,14,19.19.081.081,0,1,1-.12.11A67.629,67.629,0,0,1,73.21,310a.15.15,0,0,1,.25-.15Z"
              transform="translate(914.871 173.148)" fill="#263238"/>
        <path id="Path_5312" data-name="Path 5312" d="M94.45,444.77h40.84l-5.51-54.94H100.74Z"
              transform="translate(914.871 173.148)" fill="#455a64"/>
        <path id="Path_5313" data-name="Path 5313" d="M99.72,398.76h30.96l-.89-8.93H100.74Z"
              transform="translate(914.871 173.148)" fill="#263238"/>
        <rect id="Rectangle_496" data-name="Rectangle 496" width="38.28" height="8.77"
              transform="translate(1048.881 565.668) rotate(180)" fill="#455a64"/>
    </g>
</svg>