<svg xmlns="http://www.w3.org/2000/svg" width="356.715" height="337.453" viewBox="0 0 356.715 337.453">
    <g id="Group_7172" data-name="Group 7172" transform="translate(-967.951 -181.796)">
        <g id="freepik--background-complete--inject-13" transform="translate(957.566 168.255)">
            <rect id="Rectangle_661" data-name="Rectangle 661" width="1.779" height="58.737"
                  transform="translate(302.423 190.181)" fill="#c7c7c7"/>
            <rect id="Rectangle_663" data-name="Rectangle 663" width="10.78" height="32.103"
                  transform="translate(317.743 203.766)" fill="#ebebeb"/>
        </g>
        <g id="freepik--Plant--inject-13" transform="translate(973.785 399.065)">
            <path id="Path_5869" data-name="Path 5869"
                  d="M77.56,343.737c14.5,14.242,16.941,36.152,13.882,55.433-.079.438-.754.316-.754-.088,0-4.382.131-8.764.114-13.05-.079-.2-.14-.386-.219-.587-3.786-2.752-7.274-5.863-9.43-10.123-2.419-4.768-3.374-10.14-5.258-15.118-.175-.473.333-.333.666-.088,8.825,6.5,11.639,13.506,14.172,22.866A78.307,78.307,0,0,0,89.2,368.417c-1.911-8.887-5.679-17.686-12.059-24.277a.291.291,0,0,1,.421-.4Z"
                  transform="translate(-61.659 -311.414)" fill="#263238"/>
            <path id="Path_5870" data-name="Path 5870"
                  d="M72.832,343.788c-2.5.088-4.067,4.075-6.012,5.258a1.876,1.876,0,0,1-2.752-.438c-1.928-2.691.719-6,3.208-7.888-1.753.727-3.251,2.016-5.171,2.375a1.8,1.8,0,0,1-2.34-1.393c-.876-3.663,3.76-5.258,6.915-5.372-1.534-1.069-5.916-3.961-3.585-5.381s7.5,2.708,9.185,4.067c2.463,2.007,5.407,5,5.521,8.124C77.941,346.8,74.751,344.559,72.832,343.788Z"
                  transform="translate(-59.656 -309.808)" fill="#7ac3f0"/>
            <path id="Path_5871" data-name="Path 5871"
                  d="M72.832,343.788c-2.5.088-4.067,4.075-6.012,5.258a1.876,1.876,0,0,1-2.752-.438c-1.928-2.691.719-6,3.208-7.888-1.753.727-3.251,2.016-5.171,2.375a1.8,1.8,0,0,1-2.34-1.393c-.876-3.663,3.76-5.258,6.915-5.372-1.534-1.069-5.916-3.961-3.585-5.381s7.5,2.708,9.185,4.067c2.463,2.007,5.407,5,5.521,8.124C77.941,346.8,74.751,344.559,72.832,343.788Z"
                  transform="translate(-59.656 -309.808)" opacity="0.1"/>
            <path id="Path_5872" data-name="Path 5872"
                  d="M74.055,344.876c-3.19-1.446-9.316.64-9.842-.57-1.052-2.454,3.839-4.145,6.485-4.47-2.436-.657-7.1-1.709-6.959-4.058.175-2.866,7.16-.4,10.692,2.3,4.452,3.418,4.382,6.713,3.681,7.371C77.114,346.331,74.581,345.122,74.055,344.876Z"
                  transform="translate(-60.161 -310.283)" fill="#7ac3f0"/>
            <path id="Path_5873" data-name="Path 5873"
                  d="M113.14,342.139C98.1,355.776,94.832,377.634,97.155,396.985c.07.438.745.342.762-.061.167-4.382.2-8.764.377-13.05.088-.193.158-.377.245-.57,3.891-2.629,7.485-5.583,9.807-9.763,2.629-4.671,3.751-10,5.793-14.9.193-.473-.324-.351-.666-.123-9.062,6.135-12.138,13.059-15.022,22.313a77.694,77.694,0,0,1,2.086-14.5c2.244-8.764,6.345-17.449,12.971-23.795C113.754,342.3,113.4,341.894,113.14,342.139Z"
                  transform="translate(-64.207 -311.218)" fill="#263238"/>
            <path id="Path_5874" data-name="Path 5874"
                  d="M117.83,342.342c2.489.184,3.9,4.224,5.793,5.469a1.867,1.867,0,0,0,2.769-.333c2.033-2.629-.482-6.03-2.9-7.975,1.753.8,3.173,2.138,5.074,2.568a1.8,1.8,0,0,0,2.393-1.306c.982-3.628-3.506-5.434-6.7-5.635,1.569-1,6.065-3.725,3.786-5.258s-7.6,2.419-9.334,3.716c-2.542,1.9-5.591,4.776-5.819,7.888C112.6,345.164,115.876,343.035,117.83,342.342Z"
                  transform="translate(-66.233 -309.668)" fill="#7ac3f0"/>
            <path id="Path_5875" data-name="Path 5875"
                  d="M117.83,342.342c2.489.184,3.9,4.224,5.793,5.469a1.867,1.867,0,0,0,2.769-.333c2.033-2.629-.482-6.03-2.9-7.975,1.753.8,3.173,2.138,5.074,2.568a1.8,1.8,0,0,0,2.393-1.306c.982-3.628-3.506-5.434-6.7-5.635,1.569-1,6.065-3.725,3.786-5.258s-7.6,2.419-9.334,3.716c-2.542,1.9-5.591,4.776-5.819,7.888C112.6,345.164,115.876,343.035,117.83,342.342Z"
                  transform="translate(-66.233 -309.668)" opacity="0.1"/>
            <path id="Path_5876" data-name="Path 5876"
                  d="M117.058,343.4c3.243-1.323,9.281.99,9.851-.193,1.148-2.419-3.681-4.286-6.31-4.715,2.463-.561,7.16-1.437,7.108-3.786-.07-2.875-7.134-.675-10.771,1.893-4.575,3.243-4.671,6.538-3.961,7.222C113.947,344.77,116.515,343.622,117.058,343.4Z"
                  transform="translate(-66.206 -310.142)" fill="#7ac3f0"/>
            <path id="Path_5877" data-name="Path 5877"
                  d="M96.334,376.051a148.444,148.444,0,0,1-4.671,21.568.537.537,0,0,1-1.052-.219c.99-6.643,2.787-13.146,3.777-19.816a100.026,100.026,0,0,0,1.157-20.341c-.64-11.192-3.681-23.111-10.981-31.866-.167-.21.175-.508.342-.315,14.627,17.064,12.27,37.975,12.27,39.85,2.077-7.064,4.207-15.153,12.042-22.348.342-.307.6-.158.543.368-1.4,13.094-5.039,19.938-12.638,26.941C96.886,371.94,96.614,374.009,96.334,376.051Z"
                  transform="translate(-62.729 -309.109)" fill="#263238"/>
            <path id="Path_5878" data-name="Path 5878"
                  d="M82.583,325.09c-2.629-1.166-6.258,2.182-8.861,2.419a2.146,2.146,0,0,1-2.629-1.84c-.649-3.76,3.769-5.872,7.283-6.547-2.217-.14-4.382.456-6.564-.131a2.077,2.077,0,0,1-1.753-2.629c.964-4.224,6.564-3.6,9.877-2.095-1.052-1.876-4.145-7.081-1.017-7.388s6.424,6.591,7.485,8.852c1.551,3.313,3.094,7.888,1.639,11.2C86.378,330.8,84.2,326.852,82.583,325.09Z"
                  transform="translate(-60.932 -306.869)" fill="#7ac3f0"/>
            <path id="Path_5879" data-name="Path 5879"
                  d="M82.583,325.09c-2.629-1.166-6.258,2.182-8.861,2.419a2.146,2.146,0,0,1-2.629-1.84c-.649-3.76,3.769-5.872,7.283-6.547-2.217-.14-4.382.456-6.564-.131a2.077,2.077,0,0,1-1.753-2.629c.964-4.224,6.564-3.6,9.877-2.095-1.052-1.876-4.145-7.081-1.017-7.388s6.424,6.591,7.485,8.852c1.551,3.313,3.094,7.888,1.639,11.2C86.378,330.8,84.2,326.852,82.583,325.09Z"
                  transform="translate(-60.932 -306.869)" opacity="0.1"/>
            <path id="Path_5880" data-name="Path 5880"
                  d="M83.47,326.641c-2.629-3.111-9.991-4.032-9.93-5.548.14-3.085,6.074-2.366,8.983-1.376-2.191-1.911-6.5-5.346-5.18-7.712,1.63-2.883,7.634,3.19,9.93,7.774,2.9,5.784,1.218,9.185.123,9.5C85.889,329.708,83.89,327.149,83.47,326.641Z"
                  transform="translate(-61.372 -307.411)" fill="#7ac3f0"/>
            <path id="Path_5881" data-name="Path 5881"
                  d="M104.3,387.741l6.45,49.3H71.49c.806-4.382,8.116-49.359,8.116-49.359Z"
                  transform="translate(-61.119 -316.856)" fill="#7ac3f0"/>
        </g>
        <path id="Path_5882" data-name="Path 5882"
              d="M173.831,209.316a28.676,28.676,0,0,0-3.882-8.247,38.247,38.247,0,0,0-6.214-6.766c-9.316-8.107-22.156-11.244-34.294-10.412a45.328,45.328,0,0,0-16.038,3.988,28.185,28.185,0,0,0-6.783,4.452c-1.884,1.674-4.005,3.734-4.882,6.135a.421.421,0,0,0,.666.456c1.113-.876,2.051-1.981,3.111-2.945a30.275,30.275,0,0,1,3.4-2.629,41.816,41.816,0,0,1,7.449-3.891,47.657,47.657,0,0,1,33.3-.3,43.654,43.654,0,0,1,13.882,8.247,41.963,41.963,0,0,1,5.258,5.583,62.567,62.567,0,0,1,4.671,6.45C173.638,209.562,173.91,209.509,173.831,209.316Z"
              transform="translate(908.931 107.411)" fill="#cacccc"/>
        <path id="Path_5883" data-name="Path 5883"
              d="M168.14,191.978a18,18,0,0,0-3.918-4.426,37.687,37.687,0,0,0-5.1-3.155,57.546,57.546,0,0,0-21.034-6.556,33.663,33.663,0,0,0-10.648.526,44.7,44.7,0,0,0-4.9,1.394,17.16,17.16,0,0,0-4.61,2.147.219.219,0,0,0,.175.377c1.876-.386,3.672-1.078,5.556-1.437s3.646-.429,5.486-.6c21.533-2,37.107,11.314,38.632,12.112a.263.263,0,0,0,.359-.377Z"
              transform="translate(906.935 108.168)" fill="#cacccc"/>
        <path id="Path_5884" data-name="Path 5884"
              d="M90.189,264.549c4.382,2.831,9.57.762,13.006-2.559,3.576-3.453,6.012-7.975,7.888-12.524,1.753-4.154,2.989-8.492,4.382-12.778s2.629-8.764,4.838-12.682a16.187,16.187,0,0,1,9.641-7.721,19.4,19.4,0,0,1,13.348,1.2,19.062,19.062,0,0,1,5.9,4.075,17.6,17.6,0,0,1,3.549,5.793c1.849,4.627,2.778,9.553,3.9,14.382.92,4,2.831,7.6,6.573,9.57,3.19,1.683,7.116,2.191,10.359.377a.219.219,0,0,0-.14-.412,13.514,13.514,0,0,1-11.569-3.173,12.051,12.051,0,0,1-3.2-5.889c-.7-2.629-1.227-5.337-1.946-7.984-1.192-4.382-2.375-9.176-5.258-12.822a22.226,22.226,0,0,0-11.332-7.257,20.263,20.263,0,0,0-12.98.561,18.4,18.4,0,0,0-9.465,8.852c-4.137,7.888-5.469,16.88-8.659,25.135a36.441,36.441,0,0,1-6.468,11.227c-2.918,3.26-7.607,5.679-11.972,3.865a.429.429,0,0,0-.394.762Z"
              transform="translate(910.383 103.756)" fill="#cacccc"/>
        <path id="Path_5885" data-name="Path 5885"
              d="M89.074,248.426c2.016.272,3.865-1.244,4.8-2.91a33.3,33.3,0,0,0,2.91-7.572,124.153,124.153,0,0,1,5.258-16c3.506-8.159,8.966-16.03,16.827-20.552A30.928,30.928,0,0,1,144.857,199a31.279,31.279,0,0,1,10.85,6.731,35.7,35.7,0,0,1,7.607,11,91.968,91.968,0,0,1,4.47,13.146c.517,1.8,1.245,3.979,2.98,4.952a3.225,3.225,0,0,0,4.128-.6c.1-.114-.061-.237-.167-.167a2.629,2.629,0,0,1-3.243-.263,5.153,5.153,0,0,1-1.753-3.111c-.587-2.419-1.06-4.855-1.753-7.265a49.246,49.246,0,0,0-6.056-13.839,33.435,33.435,0,0,0-46.555-9.115c-7.572,5.136-12.7,13.05-16.091,21.4a117.016,117.016,0,0,0-4.382,14.023A65.73,65.73,0,0,1,92.754,243a22.875,22.875,0,0,1-1.4,2.962,2.7,2.7,0,0,1-2.209,1.6.435.435,0,1,0-.07.868Z"
              transform="translate(910.543 106.058)" fill="#cacccc"/>
        <path id="Path_5886" data-name="Path 5886"
              d="M91.92,269.073a.386.386,0,0,0,.307.429,13.625,13.625,0,0,0,2.165.333,9.158,9.158,0,0,0,.982,0c3.865-.193,7.888-2.384,11.937-6.512a44.206,44.206,0,0,0,8.343-11.945,61.936,61.936,0,0,0,3.8-11.761c.28-1.131.57-2.27.876-3.392.955-3.593,2.691-8.764,6.608-12.024a11.5,11.5,0,0,1,9.641-2.436,19.5,19.5,0,0,1,12.734,8.9,17.6,17.6,0,0,1,2.226,12.191,24.408,24.408,0,0,1-6.354,12.051,38.238,38.238,0,0,1-11.709,8.212c-1.858.876-4.321,2.042-6.845,2.971l-1.446.535c-1.84.675-3.734,1.358-5.548,2.156a.543.543,0,0,0,.324,1.025c1.271-.272,2.524-.622,3.69-.964,8.457-2.428,18.992-6.354,25.416-15.214a24.066,24.066,0,0,0,4.838-13.269,19.684,19.684,0,0,0-3.891-12.27,21.612,21.612,0,0,0-13.839-8.589,13.523,13.523,0,0,0-10.447,2.629c-3.243,2.515-5.627,6.521-7.283,12.27-.456,1.56-.876,3.155-1.253,4.7a63.18,63.18,0,0,1-3.506,10.9,42.242,42.242,0,0,1-8.633,12.322c-2.936,2.892-7.511,6.337-12.655,6.345a.456.456,0,0,0-.482.412Z"
              transform="translate(910.142 103.017)" fill="#cacccc"/>
        <path id="Path_5887" data-name="Path 5887"
              d="M89.938,254.38A7.143,7.143,0,0,0,96.2,252.8c1.919-1.534,2.91-4.084,3.7-6.345,1.832-5.258,3.251-10.692,5.074-15.977,2.831-8.238,7.011-16.652,14.434-21.612a28.045,28.045,0,0,1,22.883-3.593A24.917,24.917,0,0,1,153.478,212a35.056,35.056,0,0,1,6.582,10.622c.815,1.963,1.516,3.961,2.138,5.995a65.283,65.283,0,0,0,2.033,6.354c1.437,3.453,5.057,7.6,9.229,5.889a.342.342,0,0,0-.123-.649,8.054,8.054,0,0,1-5.846-3.392c-1.481-2.086-2.051-4.663-2.726-7.09a56.231,56.231,0,0,0-5.188-13.006,30.087,30.087,0,0,0-8.072-9.316,28.571,28.571,0,0,0-12.059-5.031,30.3,30.3,0,0,0-22.857,5.513c-7.213,5.39-11.323,13.839-14.137,22.173-1.586,4.68-2.813,9.456-4.268,14.172-1.1,3.593-3.059,9.641-7.967,8.843a.675.675,0,0,0-.28,1.306Z"
              transform="translate(910.441 105.16)" fill="#cacccc"/>
        <path id="Path_5888" data-name="Path 5888"
              d="M89.577,258.471a6.766,6.766,0,0,0,2.051,1.569,7.417,7.417,0,0,0,5.583-.105,10.885,10.885,0,0,0,4.776-4.251,37.134,37.134,0,0,0,3.12-6.284c1.008-2.428,1.884-4.925,2.743-7.414,1.753-5,3.322-10.052,5.258-15,1.683-4.382,3.777-8.563,7.3-11.753a22.322,22.322,0,0,1,23.663-4.163,21.8,21.8,0,0,1,9.842,8.229c2.629,4.005,3.821,8.676,4.978,13.243,1.034,4.067,1.867,8.457,4.47,11.867,2.165,2.848,6.775,5.1,9.816,2.138a.175.175,0,0,0-.193-.289,6.183,6.183,0,0,1-6.538-1.131,12.541,12.541,0,0,1-3.628-5.451c-1.8-4.654-2.507-9.641-4.154-14.382a27.169,27.169,0,0,0-6.854-11.1,25.635,25.635,0,0,0-10.745-6.135,24.478,24.478,0,0,0-23.286,6.223c-3.339,3.357-5.434,7.59-7.125,11.963-1.84,4.794-3.33,9.719-5,14.583-.876,2.489-1.753,4.96-2.726,7.423a38.562,38.562,0,0,1-2.761,6.135,9.536,9.536,0,0,1-4.5,4.11,5.486,5.486,0,0,1-5.5-.622A.424.424,0,0,0,89.577,258.471Z"
              transform="translate(910.442 104.505)" fill="#cacccc"/>
        <path id="Path_5889" data-name="Path 5889"
              d="M174.439,231.011a29.638,29.638,0,0,0,0-3.418A42.576,42.576,0,0,0,163.046,202.5a39.815,39.815,0,0,0-22.708-12.27,42.488,42.488,0,0,0-25.118,3.856,41.945,41.945,0,0,0-18.256,17.528,43.1,43.1,0,0,0-5.513,24.627c0,.184.3.149.307,0a52.331,52.331,0,0,1,8.7-25.907,41.866,41.866,0,0,1,18.527-15.109,39.438,39.438,0,0,1,23.663-1.981,38.273,38.273,0,0,1,20.639,13.208,44.39,44.39,0,0,1,6.626,11.472,88.31,88.31,0,0,1,3.795,13.146C173.843,231.405,174.413,231.405,174.439,231.011Z"
              transform="translate(910.215 106.672)" fill="#cacccc"/>
        <path id="Path_5890" data-name="Path 5890"
              d="M170.855,272.808c.964-1.42,3.032-.167,4.1.429,1.6.876,3.33,2.077,5.258,1.753a.125.125,0,1,1,.079.237,4.671,4.671,0,0,1-4.031.053,20.822,20.822,0,0,1-2-.946,8.493,8.493,0,0,0-1.954-.824,1.379,1.379,0,0,0-.377,0c-.131,0-.1,0-.114.044-.123.228.07.71.14.938a8.457,8.457,0,0,0,.675,1.709,12.893,12.893,0,0,0,2.287,3.032,18.462,18.462,0,0,0,1.621,1.472c.578.465,1.262.815,1.814,1.306a.194.194,0,1,1-.184.342,7.887,7.887,0,0,1-1.893-.876,13.264,13.264,0,0,1-1.753-1.227,11.832,11.832,0,0,1-2.761-3.278,10.577,10.577,0,0,1-.876-1.963A2.436,2.436,0,0,1,170.855,272.808Z"
              transform="translate(900.416 96.487)" fill="#cacccc"/>
        <path id="Path_5891" data-name="Path 5891"
              d="M174.211,276a12.7,12.7,0,0,1,2.9,1.841q.587.491,1.209.92c.2.14.421.272.631.394a5.653,5.653,0,0,0,.666.289.21.21,0,0,1,0,.4,3.784,3.784,0,0,1-2.927-1.025,12.769,12.769,0,0,1-2.629-2.559C173.94,276.175,174.045,276,174.211,276Z"
              transform="translate(899.996 96.012)" fill="#cacccc"/>
        <path id="Path_5892" data-name="Path 5892"
              d="M96.07,272.9a.149.149,0,0,0,0,.061.333.333,0,0,0,.263.3,4.1,4.1,0,0,0,.789.123,9.7,9.7,0,0,0,2.743-.351,18.513,18.513,0,0,0,3.628-1.271,26.293,26.293,0,0,0,6.24-4.216c6.354-5.556,10.824-13.47,13.286-23.54.158-.666.324-1.341.482-2.007.876-3.637,1.753-7.388,3.769-10.517a12.217,12.217,0,0,1,4.207-4.005,11.656,11.656,0,0,1,5.732-1.227.464.464,0,0,0,.193-.876c-2.27-1.113-5.092-.061-6.2.438a14.023,14.023,0,0,0-5.013,4.005c-2.629,3.251-3.611,7.423-4.557,11.455l-.245,1.008a57.4,57.4,0,0,1-4.654,13.146,38.141,38.141,0,0,1-8.457,10.85,26.556,26.556,0,0,1-5.539,3.909,23.919,23.919,0,0,1-3.19,1.323c-.368.123-.745.219-1.122.324a10.6,10.6,0,0,0-2.147.754A.368.368,0,0,0,96.07,272.9Z"
              transform="translate(909.629 102.33)" fill="#cacccc"/>
        <path id="Path_5893" data-name="Path 5893"
              d="M121.16,268.068a.368.368,0,0,0,.175.342.325.325,0,0,0,.175.061.368.368,0,0,0,.324-.167,6.722,6.722,0,0,1,2.927-2.086c1.034-.482,2.112-.876,3.155-1.306l.473-.193c2.866-1.122,5.2-2.121,7.336-3.146,9.483-4.549,15.136-10.438,16.827-17.528a15.775,15.775,0,0,0-1.332-11.236,13.216,13.216,0,0,0-8.238-6.792.447.447,0,0,0-.526.263.4.4,0,0,0,.167.517,17.879,17.879,0,0,1,7.555,8.624c1.919,5.083.99,13.392-7.967,20.114a53.961,53.961,0,0,1-10.754,5.89c-1.893.833-4.032,1.753-6.082,2.866a15.974,15.974,0,0,0-2.419,1.5,8.028,8.028,0,0,0-1.753,2.086.316.316,0,0,0-.044.193Z"
              transform="translate(906.528 102.191)" fill="#cacccc"/>
        <path id="Path_5894" data-name="Path 5894"
              d="M92.845,275.592a9.018,9.018,0,0,0,4.251,1.28,16.223,16.223,0,0,0,7.888-1.911,37.441,37.441,0,0,0,9.684-7.353c.272-.28.526-.57.789-.876l.237-.254a.543.543,0,0,0,.167-.123c2.217-2.209,5.258-3.436,8.177-4.627,1.017-.412,2.077-.876,3.067-1.3,4.9-2.279,8.238-4.54,10.815-7.344a17.116,17.116,0,0,0,4.689-9.939c.307-3.243-.456-7.765-3.585-9.868s-7.09-.6-9.413,1.928c-2.7,2.954-4.075,7.125-5.188,10.517l-.386,1.183a63.049,63.049,0,0,1-3.874,9.86,41.042,41.042,0,0,1-6.442,9,40.578,40.578,0,0,1-8.571,6.906c-4.154,2.48-8.2,3.234-12.016,2.27h-.07a.394.394,0,0,0-.377.237.351.351,0,0,0,.158.412Zm26.555-13.76a27.4,27.4,0,0,0,1.674-2.629,51.262,51.262,0,0,0,4.382-10.263c.184-.57.359-1.139.552-1.753a36.429,36.429,0,0,1,3.9-9.281,8.344,8.344,0,0,1,3.795-3.365,5.5,5.5,0,0,1,2.27-.377,3.891,3.891,0,0,1,2.489,1.025c2.629,2.454,2.8,6.95,1.753,10.315a17.984,17.984,0,0,1-6.231,8.466,48.005,48.005,0,0,1-10.517,5.837l-.324.14C121.925,260.588,120.619,261.175,119.4,261.833Z"
              transform="translate(910.049 101.415)" fill="#cacccc"/>
        <path id="Path_5895" data-name="Path 5895"
              d="M129.675,257.05a.412.412,0,0,0,.14.429.386.386,0,0,0,.228.088.368.368,0,0,0,.3-.123c.193-.193,1.613-1.209,2.3-1.674.219-.149.447-.289.666-.447.465-.307.947-.622,1.4-.973a32.836,32.836,0,0,0,3.839-3.409c2.3-2.41,3.374-4.82,3.181-7.178a3.12,3.12,0,0,0-1.753-2.787,3.164,3.164,0,0,0-3.558,1.131,12.4,12.4,0,0,0-1.84,3.506c-.4,1.017-.762,2.077-1.122,3.094l-.289.824a58.58,58.58,0,0,1-3.444,7.134A.377.377,0,0,0,129.675,257.05Zm4.478-6.065a51.381,51.381,0,0,1,2.91-6.293l.053-.088c.3-.526,1.008-1.753,1.691-1.893h.149a.727.727,0,0,1,.394.158c.6.464.508,1.753.228,2.726-.649,2.331-2.629,4.216-4.172,5.732L134.18,252.5c-.421.394-.833.8-1.245,1.2A25.257,25.257,0,0,0,134.154,250.985Z"
              transform="translate(905.479 100.361)" fill="#cacccc"/>
        <path id="Path_5896" data-name="Path 5896"
              d="M135.426,303.717a97.611,97.611,0,0,0-4.067,9.237.1.1,0,0,0,.167.079c1.709-2.542,3.129-5.258,4.733-7.888,1.052-1.691,2.954-5.644,5.521-5,1.078.263,1.849,1.455,2.445,2.3a36.641,36.641,0,0,0,2.542,3.383c1.4,1.6,4.031,3.681,6.328,3.12.105,0,.167-.193.061-.245-.613-.324-1.262-.526-1.867-.876a9.384,9.384,0,0,1-1.84-1.358,20.524,20.524,0,0,1-2.822-3.611c-1.315-2.033-2.848-4.715-5.705-4.382C138.275,298.783,136.469,301.561,135.426,303.717Z"
              transform="translate(905.267 93.237)" fill="#cacccc"/>
        <path id="Path_5897" data-name="Path 5897"
              d="M92.726,283.213c2.778,3.655,7.747,3.006,11.341,1.06a38.562,38.562,0,0,0,5.837-4.163,43.687,43.687,0,0,1,6.135-4.329.105.105,0,0,0-.061-.2c-4.443.71-7.651,4.382-11.271,6.7-3.4,2.191-8.335,3.506-11.84.736C92.779,282.906,92.638,283.1,92.726,283.213Z"
              transform="translate(910.045 96.064)" fill="#cacccc"/>
        <path id="Path_5898" data-name="Path 5898"
              d="M173.18,287.3c.28,0,.394-.421.105-.491-4.487-1.113-8.028-4.478-10.2-8.484a28.124,28.124,0,0,1-3.322-11.832,22.068,22.068,0,0,1,1.35-9.159,6.818,6.818,0,0,1,1.472-2.629,1.753,1.753,0,0,1,2.629-.14,16.985,16.985,0,0,1,1.288,2.095,12.138,12.138,0,0,0,4.014,3.769,11.235,11.235,0,0,0,5.258,1.516,10.517,10.517,0,0,0,5.6-1.446c.114-.07.061-.289-.079-.245a12.375,12.375,0,0,1-13.146-3.944c-1.069-1.376-1.648-3.506-3.69-3.663s-3.462,1.472-4.268,3.164a23.094,23.094,0,0,0-1.7,12.918C159.569,276.452,164.214,286.89,173.18,287.3Z"
              transform="translate(901.948 98.899)" fill="#cacccc"/>
        <path id="Path_5899" data-name="Path 5899"
              d="M138.236,310.8a6.722,6.722,0,0,0-.377,2.489.14.14,0,0,0,.245.053,7.659,7.659,0,0,0,.92-2.06c.272-.754.552-1.507.876-2.244a16,16,0,0,1,1.122-2.138,3,3,0,0,1,.561-.815l.061-.044.14.14a4.009,4.009,0,0,1,.368.4,39.276,39.276,0,0,0,2.875,3.506c.876.815,2.27,1.7,3.506,1.42a.1.1,0,0,0,0-.175,8.766,8.766,0,0,1-1.937-1.35,12.822,12.822,0,0,1-1.464-1.823c-.5-.684-.947-1.411-1.49-2.068s-1.148-1.507-2.016-1.507-1.28.78-1.621,1.4a14.958,14.958,0,0,0-1.052,2.322C138.718,309.139,138.455,309.962,138.236,310.8Z"
              transform="translate(904.464 92.478)" fill="#cacccc"/>
        <path id="Path_5900" data-name="Path 5900"
              d="M176.1,284.074a.149.149,0,0,0,.131-.263,24.611,24.611,0,0,1-2.98-2.989,39.546,39.546,0,0,1-2.4-3.506,38.467,38.467,0,0,1-3.751-6.643,8.545,8.545,0,0,1-.806-3.62c.167-1.753,1.928-.473,2.691.184a24.272,24.272,0,0,0,2.717,2.3,10.14,10.14,0,0,0,6.433,1.569,9.773,9.773,0,0,0,3.094-1.113c.219-.1.061-.394-.158-.324a9,9,0,0,1-2.629.245,13.8,13.8,0,0,1-2.173-.131,9.947,9.947,0,0,1-4.163-1.674c-1.49-1.06-4.224-4.619-6.31-2.9-1.805,1.481-.412,4.925.316,6.608a40.314,40.314,0,0,0,4.382,7.222C171.895,280.963,173.753,283.268,176.1,284.074Z"
              transform="translate(901.121 97.403)" fill="#cacccc"/>
        <path id="Path_5901" data-name="Path 5901"
              d="M99.1,293.76a7.958,7.958,0,0,0,5.574-.938c.359-.193.692-.412,1.043-.631-.184.21-.359.412-.526.622a9.886,9.886,0,0,0-2.174,5.145.123.123,0,0,0,.219.079,51.958,51.958,0,0,1,3.111-4.382c1.122-1.376,2.428-2.734,3.506-4.181a.394.394,0,0,0-.394-.6c-1.858.421-3.251,1.753-4.9,2.629a26.29,26.29,0,0,1-5.486,2.13C99,293.628,99,293.742,99.1,293.76Z"
              transform="translate(909.263 94.422)" fill="#cacccc"/>
        <path id="Path_5902" data-name="Path 5902"
              d="M121.946,301.263a49.891,49.891,0,0,0-2.629,5.74.2.2,0,0,0,.359.184c1.49-2.007,2.691-4.233,4.075-6.319s2.761-3.979,4.268-5.881a34.626,34.626,0,0,1,8.589-7.888,22.081,22.081,0,0,1,2.629-1.437,6.81,6.81,0,0,1,3.059-.876c1.946.105,3.208,1.972,4.075,3.418,2.095,3.506,3.883,7.2,7.125,9.877a10.99,10.99,0,0,0,4.978,2.472,3.908,3.908,0,0,0,2.393-.07c.237-.149.386-.368.149-.578a.1.1,0,0,0-.149.123c.053.123-1.131-.114-1.183-.131l-.754-.21a9.085,9.085,0,0,1-1.534-.631,14.769,14.769,0,0,1-2.629-1.753,20.306,20.306,0,0,1-4.294-5.416c-1.008-1.709-1.9-3.506-3.024-5.145a7.888,7.888,0,0,0-3.795-3.287c-2-.649-4.023.07-5.828.876a25.889,25.889,0,0,0-4.917,2.918,33.12,33.12,0,0,0-7.888,8.545A59.952,59.952,0,0,0,121.946,301.263Z"
              transform="translate(906.758 95.122)" fill="#cacccc"/>
        <path id="Path_5903" data-name="Path 5903"
              d="M127.867,306.1a19.569,19.569,0,0,0-1.3,4.566.114.114,0,0,0,.21.07c.876-1.525,1.49-3.216,2.4-4.741s1.753-3.032,2.629-4.5a46.257,46.257,0,0,1,5.67-7.336,4.6,4.6,0,0,1,3.663-1.753,6.048,6.048,0,0,1,3.506,2.13c1.981,2.217,2.892,5.258,4.934,7.432a8.414,8.414,0,0,0,7.239,2.682c.088,0,.114-.184,0-.21a12.331,12.331,0,0,1-4.715-2.27A13.76,13.76,0,0,1,148.822,298c-1.507-2.629-2.971-5.486-5.819-6.8a5.311,5.311,0,0,0-4-.245,9.211,9.211,0,0,0-3.506,2.682,39.484,39.484,0,0,0-5.705,7.984,34.268,34.268,0,0,0-1.928,4.478Z"
              transform="translate(905.859 94.198)" fill="#cacccc"/>
        <path id="Path_5904" data-name="Path 5904"
              d="M113.578,302.889a.3.3,0,0,0,.167.359h.114a.307.307,0,0,0,.254-.131,68.677,68.677,0,0,1,4.3-5.995,67.424,67.424,0,0,1,5.18-5.618,95.863,95.863,0,0,1,9.7-8.65,27.231,27.231,0,0,1,5.469-3.234c1.849-.806,4.382-1.9,6.135-.342a11.5,11.5,0,0,1,2.375,3.655c.245.508.491,1,.745,1.464a35.059,35.059,0,0,0,3.742,5.592,19.684,19.684,0,0,0,4.9,4.3,12.725,12.725,0,0,0,5.907,1.928.28.28,0,0,0,.307-.237.272.272,0,0,0-.184-.333c-5.828-2.042-9.57-6.5-11.674-9.886-.587-.947-1.122-1.972-1.621-2.954s-1.017-1.972-1.613-2.918a5.833,5.833,0,0,0-4.812-3.173,15.086,15.086,0,0,0-6.494,1.8,30.725,30.725,0,0,0-5.618,3.506,84.737,84.737,0,0,0-9.825,9.4C117.908,294.791,114.823,298.525,113.578,302.889Z"
              transform="translate(907.466 95.923)" fill="#cacccc"/>
        <path id="Path_5905" data-name="Path 5905"
              d="M174.229,286.19c.289.14.464-.289.245-.465a32.321,32.321,0,0,1-7.485-8.037,25.582,25.582,0,0,1-3.365-8.764,26.292,26.292,0,0,1-.465-4.82c0-1.183-.307-4.172,1.429-4.18s2.691,2.077,3.7,3.076a13.269,13.269,0,0,0,4.005,2.787,8.589,8.589,0,0,0,9.167-1.2.105.105,0,0,0-.114-.175c-3.856,2.147-8.913.473-11.893-2.4-1.209-1.157-2.191-2.831-3.909-3.3a2.629,2.629,0,0,0-3.506,1.805,16.215,16.215,0,0,0-.3,4.917,24.083,24.083,0,0,0,.754,4.934C164.221,276.786,168.2,283.14,174.229,286.19Z"
              transform="translate(901.521 98.17)" fill="#cacccc"/>
        <path id="Path_5906" data-name="Path 5906"
              d="M110.539,295.417a14.513,14.513,0,0,0-1.551,3.874.719.719,0,0,0,.412.806.93.93,0,0,0,.2.044.6.6,0,0,0,.543-.289c.517-.8,1.008-1.613,1.5-2.419a44.56,44.56,0,0,1,3.506-5.2,62.493,62.493,0,0,1,6.24-6.521A154.724,154.724,0,0,1,135.543,275.2c7.011-4.662,11.823-7.125,12.927-6.617.754.351.789,1.6.824,2.629q0,.439.044.876a40.025,40.025,0,0,0,.771,4.268,25.932,25.932,0,0,0,3.006,7.66,17.151,17.151,0,0,0,5.127,5.425c1.139.745,4.093,2.419,6.81,1.9a.394.394,0,0,0,.035-.719c-.447-.175-.876-.333-1.323-.491a21.561,21.561,0,0,1-2.743-1.148,15.889,15.889,0,0,1-3.506-2.568,19.473,19.473,0,0,1-4.671-7.607,41.812,41.812,0,0,1-1.753-8.58,4.11,4.11,0,0,0-1.6-3.208c-1.034-.675-2.813-.21-3.69.167-5.031,2.156-21.192,12.48-27.633,18.457a40.958,40.958,0,0,0-5.39,6.275,37.447,37.447,0,0,0-2.235,3.5Z"
              transform="translate(908.034 97.164)" fill="#cacccc"/>
        <path id="Path_5907" data-name="Path 5907"
              d="M96.145,288.656c3.374,1.464,7.371,0,10.447-1.525s5.609-3.585,8.492-5.258c.745-.421,1.49-.815,2.261-1.174.386-.175.78-.342,1.174-.491.2-.079.438-.228.649-.158s.254,0,.088.167-.105.149-.167.219a27.876,27.876,0,0,1-3.769,3.173,46.188,46.188,0,0,0-6.661,6.941c-1.858,2.41-3.795,5.18-4.382,8.221a.142.142,0,0,0,.254.1c1.183-1.613,2.174-3.365,3.348-4.987a37.682,37.682,0,0,1,3.812-4.452c1.236-1.245,2.524-2.445,3.83-3.611s2.682-2.165,3.856-3.4c.815-.876,2.27-2.629.675-3.506-1.288-.7-3.2.5-4.338,1.069-3.225,1.613-6.135,3.795-9.272,5.53a24,24,0,0,1-5.109,2.147,24.716,24.716,0,0,1-5.188.754C96,288.419,96,288.6,96.145,288.656Z"
              transform="translate(909.632 95.679)" fill="#cacccc"/>
        <path id="Path_5908" data-name="Path 5908"
              d="M142.066,309.527q0-.048,0-.1a.21.21,0,0,1,.316-.105l.07.044c.307.114.508.561.622.824s.289.657.438.973c.289.631.543,1.28.876,1.9a.131.131,0,0,1-.2.167,5.635,5.635,0,0,1-1.56-1.6,7.486,7.486,0,0,1-.482-.955,2.356,2.356,0,0,1-.167-.649A.824.824,0,0,1,142.066,309.527Z"
              transform="translate(903.956 91.898)" fill="#cacccc"/>
        <path id="Path_5909" data-name="Path 5909" d="M63.379,197.347H60.75V166.62H91.477v2.629h-28.1Z"
              transform="translate(913.994 109.53)" fill="#7ac3f0"/>
        <path id="Path_5910" data-name="Path 5910" d="M210.557,316.417H179.83v-2.629h28.1v-28.1h2.629Z"
              transform="translate(899.277 94.814)" fill="#7ac3f0"/>
        <path id="Path_5911" data-name="Path 5911" d="M91.477,316.417H60.75V285.69h2.629v28.1h28.1Z"
              transform="translate(913.994 94.814)" fill="#7ac3f0"/>
        <path id="Path_5912" data-name="Path 5912" d="M210.557,197.347h-2.629v-28.1h-28.1V166.62h30.727Z"
              transform="translate(899.277 109.53)" fill="#7ac3f0"/>
        <path id="Path_5913" data-name="Path 5913" d="M222.317,328.187H220.24v-.657h1.42v-1.42h.657Z"
              transform="translate(894.282 89.819)" fill="#7ac3f0"/>
        <path id="Path_5914" data-name="Path 5914"
              d="M196.94,328.387h-3.506v-.657h3.506Zm-7.011,0h-3.506v-.657h3.506Zm-7.011,0h-3.506v-.657h3.506Zm-7.011,0H172.4v-.657h3.506Zm-7.011,0h-3.506v-.657h3.506Zm-7.011,0h-3.506v-.657h3.506Zm-7.011,0h-3.506v-.657h3.506Zm-7.011,0h-3.506v-.657h3.506Zm-7.011,0h-3.506v-.657h3.506Zm-7.011,0h-3.506v-.657h3.506Zm-7.011,0h-3.506v-.657h3.506Zm-7.011,0H116.31v-.657h3.506Zm-7.011,0H109.3v-.657H112.8Zm-7.011,0h-3.506v-.657h3.506Zm-7.011,0H95.276v-.657h3.506Zm-7.011,0H88.265v-.657h3.506Zm-7.011,0H81.254v-.657H84.76Zm-7.011,0H74.243v-.657h3.506Zm-7.011,0H67.231v-.657h3.506Zm-7.011,0H60.22v-.657h3.506Z"
              transform="translate(914.059 89.618)" fill="#7ac3f0"/>
        <path id="Path_5915" data-name="Path 5915" d="M55.107,328.187H53.03V326.11h.657v1.42h1.42Z"
              transform="translate(914.948 89.819)" fill="#7ac3f0"/>
        <path id="Path_5916" data-name="Path 5916"
              d="M53.684,302.794H53v-3.506h.657Zm0-7.011H53v-3.506h.657Zm0-7.011H53v-3.506h.657Zm0-7.011H53v-3.506h.657Zm0-7.011H53v-3.506h.657Zm0-7.011H53v-3.506h.657Zm0-7.011H53v-3.506h.657Zm0-7.011H53v-3.506h.657Zm0-7.011H53V243.2h.657Zm0-7.011H53v-3.506h.657Zm0-7.011H53v-3.506h.657Zm0-7.011H53v-3.506h.657Zm0-7.011H53v-3.506h.657Zm0-7.011H53v-3.506h.657Zm0-7.011H53V201.13h.657Zm0-7.055H53v-3.506h.657Zm0-7.011H53v-3.506h.657Zm0-7.011H53v-3.506h.657Zm0-7.011H53v-3.506h.657Zm0-7.011H53V166.03h.657Z"
              transform="translate(914.951 109.603)" fill="#7ac3f0"/>
        <path id="Path_5917" data-name="Path 5917" d="M53.687,160.977H53.03V158.9h2.077v.657h-1.42Z"
              transform="translate(914.948 110.484)" fill="#7ac3f0"/>
        <path id="Path_5918" data-name="Path 5918"
              d="M196.94,159.557h-3.506V158.9h3.506Zm-7.011,0h-3.506V158.9h3.506Zm-7.011,0h-3.506V158.9h3.506Zm-7.011,0H172.4V158.9h3.506Zm-7.011,0h-3.506V158.9h3.506Zm-7.011,0h-3.506V158.9h3.506Zm-7.011,0h-3.506V158.9h3.506Zm-7.011,0h-3.506V158.9h3.506Zm-7.011,0h-3.506V158.9h3.506Zm-7.011,0h-3.506V158.9h3.506Zm-7.011,0h-3.506V158.9h3.506Zm-7.011,0H116.31V158.9h3.506Zm-7.011,0H109.3V158.9H112.8Zm-7.011,0h-3.506V158.9h3.506Zm-7.011,0H95.276V158.9h3.506Zm-7.011,0H88.265V158.9h3.506Zm-7.011,0H81.254V158.9H84.76Zm-7.011,0H74.243V158.9h3.506Zm-7.011,0H67.231V158.9h3.506Zm-7.011,0H60.22V158.9h3.506Z"
              transform="translate(914.059 110.484)" fill="#7ac3f0"/>
        <path id="Path_5919" data-name="Path 5919" d="M222.317,160.977h-.657v-1.42h-1.42V158.9h2.077Z"
              transform="translate(894.282 110.484)" fill="#7ac3f0"/>
        <path id="Path_5920" data-name="Path 5920"
              d="M222.517,302.794h-.657v-3.506h.657Zm0-7.011h-.657v-3.506h.657Zm0-7.011h-.657v-3.506h.657Zm0-7.011h-.657v-3.506h.657Zm0-7.011h-.657v-3.506h.657Zm0-7.011h-.657v-3.506h.657Zm0-7.011h-.657v-3.506h.657Zm0-7.011h-.657v-3.506h.657Zm0-7.011h-.657V243.2h.657Zm0-7.011h-.657v-3.506h.657Zm0-7.011h-.657v-3.506h.657Zm0-7.011h-.657v-3.506h.657Zm0-7.011h-.657v-3.506h.657Zm0-7.011h-.657v-3.506h.657Zm0-7.011h-.657V201.13h.657Zm0-7.055h-.657v-3.506h.657Zm0-7.011h-.657v-3.506h.657Zm0-7.011h-.657v-3.506h.657Zm0-7.011h-.657v-3.506h.657Zm0-7.011h-.657V166.03h.657Z"
              transform="translate(894.082 109.603)" fill="#7ac3f0"/>
        <path id="Path_5921" data-name="Path 5921"
              d="M271.37,434.727H352.3c.666-2.629,1.306-5.171,1.954-7.695q1.1-4.382,2.165-8.492c.149-.613.315-1.227.473-1.832.535-2.112,1.052-4.172,1.569-6.135.307-1.227.614-2.428.876-3.611s.613-2.4.876-3.558c.079-.307.158-.622.237-.876s.167-.675.245-1l.307-1.2h0c.114-.421.219-.833.315-1.245.21-.78.4-1.542.587-2.3.289-1.1.561-2.191.833-3.251.114-.456.237-.92.351-1.367.193-.745.377-1.464.552-2.165.123-.473.237-.938.351-1.385.482-1.858.92-3.6,1.332-5.258.114-.429.21-.876.324-1.262.175-.71.351-1.385.517-2.042.114-.412.21-.806.307-1.2.359-1.393.684-2.629.964-3.777.079-.3.149-.587.228-.876l.5-1.981c.061-.228.114-.456.175-.666s.114-.447.158-.64.079-.289.105-.412.105-.394.149-.552a1.429,1.429,0,0,1,.061-.245l.184-.736H290.327s-2.629,8.948-6.748,23.365c-.876,2.936-1.753,6.135-2.726,9.465C278.057,411.327,274.841,422.545,271.37,434.727Z"
              transform="translate(887.963 84.522)" fill="#37474f"/>
        <path id="Path_5922" data-name="Path 5922"
              d="M348.59,437.321h2.016q4.5-18.6,8.712-37.256,1.017-4.54,2.007-9.088l.184-.876a.123.123,0,0,0-.237-.061l-.079.28q-1.367,4.873-2.717,9.772Q353.388,418.627,348.59,437.321Z"
              transform="translate(878.42 81.928)" fill="#263238"/>
        <path id="Path_5923" data-name="Path 5923"
              d="M295.87,368.88l3.506,17.406,2.822,14.25,4.855,24.32.5,2.5.833,4.154.622,3.146h46.327c.657-2.629,1.306-5.18,1.946-7.695q1.1-4.382,2.165-8.492c.149-.614.315-1.227.473-1.832.535-2.112,1.052-4.172,1.569-6.135.307-1.227.613-2.428.876-3.611s.613-2.4.876-3.558c.079-.307.158-.622.237-.876s.167-.675.245-1l.307-1.2h0c.114-.421.219-.833.315-1.245.21-.78.4-1.543.587-2.3.289-1.1.561-2.191.833-3.251.123-.465.237-.92.351-1.367.193-.745.377-1.464.552-2.165.123-.473.237-.938.351-1.385.482-1.858.92-3.6,1.332-5.258.114-.429.21-.876.324-1.262.175-.71.351-1.385.517-2.042.114-.412.21-.806.307-1.2.359-1.393.684-2.629.964-3.777.079-.3.149-.587.228-.876l.5-1.981c.061-.228.114-.456.175-.666s.114-.447.158-.64.079-.289.105-.412.105-.394.149-.552a1.434,1.434,0,0,1,.061-.245l.184-.736Z"
              transform="translate(884.935 84.533)" fill="#263238"/>
        <path id="Path_5924" data-name="Path 5924"
              d="M295.86,368.841h0c0,.438.333,5.136,1.087,12.27q.329,3.142.771,6.854c.464,3.891,1.034,8.177,1.753,12.708,1.209,7.888,2.787,16.529,4.838,24.96.727,3.032,1.534,6.038,2.384,8.983H408.356c-1.2-15.495-2.3-29.509-3.164-40.552-1.227-15.548-2-25.284-2-25.284H310.961Z"
              transform="translate(884.937 84.545)" fill="#37474f"/>
        <path id="Path_5925" data-name="Path 5925"
              d="M296.11,379.161c.114,3.637.263,7.274.5,10.894.245,3.926.6,7.844,1.122,11.761a3.823,3.823,0,0,0,.053.429q.727,5.5,1.648,10.981c.587,3.4,1.017,7.073,2.524,10.228a10.131,10.131,0,0,0,2.375,3.208,7.116,7.116,0,0,0,3.251,1.683,3.506,3.506,0,0,0,.6.1h.175a.21.21,0,0,0-.114.21c.044,1.218,0,2.463.149,3.672v.158c.123,1.052.315,2.095.508,3.146h1.753v-.061c-.307-1.148-.561-2.3-.876-3.506s-.7-2.331-.973-3.506a.192.192,0,0,0-.088-.114,5.416,5.416,0,0,0,5.259-3.3,9.386,9.386,0,0,0,.088-4.776l-.947-6.249c-.6-3.821-1.358-7.607-2.042-11.393-.1-.578-.2-1.157-.307-1.753-1.358-7.739-2.787-15.486-4.5-23.155-.061-.315-.14-.631-.21-.955s-.386-.149-.368.053c.053.517.105,1.034.167,1.551.3,2.945.648,5.872,1.052,8.764.491,3.436.833,6.889,1.315,10.324l.5,3.506c.789,5.653,1.613,11.306,2.577,16.932.456,2.629,2.086,7.3-1.683,8.116a3.8,3.8,0,0,1-2.55-.324,7.976,7.976,0,0,1-3.506-4.382,58.2,58.2,0,0,1-2-9.413q-.938-5.162-1.648-10.35h0c-.614-4.312-1.245-8.624-1.928-12.927-.333-2.2-.684-4.382-1.034-6.591-.158-1.008-.324-2.025-.491-3.041C296.443,378.88,296.11,378.942,296.11,379.161Z"
              transform="translate(884.906 83.568)" fill="#263238"/>
        <path id="Path_5926" data-name="Path 5926"
              d="M394.22,406.447a51.343,51.343,0,0,1-12.541-1.683c-1.893-.491-3.76-1.1-5.609-1.7A14.741,14.741,0,0,1,371,400.522c-2.848-2.463-4.18-6.336-5.416-9.772a94.3,94.3,0,0,1-3.287-11.858c-.044-.2-.333-.14-.342.053a46.361,46.361,0,0,0,1.753,13.47c1.025,3.716,2.4,7.888,5.407,10.517,3.155,2.734,7.449,3.7,11.49,4.2a52.89,52.89,0,0,0,13.672-.184.252.252,0,0,0-.061-.5Z"
              transform="translate(876.768 83.311)" fill="#263238"/>
        <path id="Path_5927" data-name="Path 5927"
              d="M406.81,378.965q.342,8.545.719,17.09.876,19.9,1.919,39.807h1.911q-1.315-19.956-2.761-39.868-.631-8.536-1.3-17.037a.245.245,0,1,0-.491.009Z"
              transform="translate(871.224 83.317)" fill="#263238"/>
        <path id="Path_5928" data-name="Path 5928"
              d="M297.36,234.08c-40.052,36.1-77.186,75.634-80.1,95.809-4.023,27.94,13.146,35.7,20.859,35.766,20.964.21,59.061-84.749,72.313-117.185C323.3,216.973,306.159,226.149,297.36,234.08Z"
              transform="translate(894.724 102.139)" fill="#dd6a57"/>
        <path id="Path_5929" data-name="Path 5929"
              d="M239.76,291.38,284.3,315.587s27.686-51.147,34.066-74.854-3.146-23.041-24.057-4.584S239.76,291.38,239.76,291.38Z"
              transform="translate(891.87 102.612)" fill="#c7c7c7"/>
        <path id="Path_5930" data-name="Path 5930"
              d="M239.76,291.38,284.3,315.587s27.686-51.147,34.066-74.854-3.146-23.041-24.057-4.584S239.76,291.38,239.76,291.38Z"
              transform="translate(891.87 102.612)" fill="#7ac3f0"/>
        <path id="Path_5931" data-name="Path 5931"
              d="M318.926,240.829c-6.38,23.716-34.075,74.872-34.075,74.872L244.3,293.65l74.688-70.2C321.477,225.361,321.582,231,318.926,240.829Z"
              transform="translate(891.309 102.506)" opacity="0.1"/>
        <path id="Path_5932" data-name="Path 5932"
              d="M250.207,293.247c17.169,11.621,33.812,19.167,37.151,21.086.158.1.289-.167.123-.254-3.374-1.709-21.647-13.085-37.142-21.113A.155.155,0,1,0,250.207,293.247Z"
              transform="translate(890.59 93.917)" fill="#263238"/>
        <path id="Path_5933" data-name="Path 5933"
              d="M279.119,381.893l130.419.377s-11.393-98.158-59.263-156.1c-11.078-13.418-28.922-6.135-36.45,1C294.719,245.252,278.751,381.42,279.119,381.893Z"
              transform="translate(887.006 103.097)" fill="#7ac3f0"/>
        <path id="Path_5934" data-name="Path 5934"
              d="M325.923,221.14c3.129,2.287,6.135,4.811,9.141,7.152l8.764,6.792a61.41,61.41,0,0,0,8.247,6c2.691,1.472,5.819,2.13,8.7.815a9.525,9.525,0,0,0,1.972-1.227l.3.465a9.123,9.123,0,0,1-5.188,2.086c-2.883.167-5.574-1.148-7.888-2.726-2.927-1.981-5.653-4.268-8.449-6.433-5.425-4.2-10.78-8.58-16.354-12.594A7.73,7.73,0,0,1,325.923,221.14Zm52.015,78.079a73.315,73.315,0,0,1,13.76,1.218c-.105-.307-.219-.622-.342-.929a69.237,69.237,0,0,0-12.086-1.131c-11.805-.219-27.6.517-34.732-11.052-2.813-4.557-3.725-10.613-.631-15.285,2.726-4.119,7.818-5.9,12.594-5.854a19.694,19.694,0,0,1,7.266,1.437,28.792,28.792,0,0,1,7.458,4.925c4.242,3.611,8.194,7.844,13.506,9.851l-.421-1.017a22.884,22.884,0,0,1-4.47-2.55c-4.934-3.567-8.922-8.51-14.408-11.3a20.052,20.052,0,0,0-13.593-1.621,13.723,13.723,0,0,0-9.9,8.247c-1.805,4.838-.394,10.377,2.489,14.5,7.414,10.578,22.007,10.4,33.514,10.552Zm-20.017-45.1a77.869,77.869,0,0,1,10.675-4.18c-.158-.254-.315-.526-.482-.78-8.414,2.358-16.187,7.677-24.864,9.167a43.873,43.873,0,0,1-30.315-6.249,42.3,42.3,0,0,1-6.871-5.355c-.105.28-.2.561-.3.876a44.469,44.469,0,0,0,6.5,5.066,44.978,44.978,0,0,0,29.325,6.818C347.351,258.7,352.644,256.5,357.92,254.119Zm7.888,93.119a161.892,161.892,0,0,0,19.675,5.732c7.4,1.753,16.547,3.225,22.524,8.229-.079-.429-.167-.876-.254-1.288-5.968-4.549-14.531-6-21.656-7.669a168.334,168.334,0,0,1-19.746-5.732c-5.548-2.042-11.034-4.785-15.092-9.211a18.931,18.931,0,0,1-5.066-14.023c.342-5.171,3.287-9.877,8.378-11.49,5.46-1.753,11.551.307,16.108,3.418,5.206,3.567,8.948,8.922,12.953,13.69,3.795,4.549,8,8.764,13.549,11.06a19.772,19.772,0,0,0,6.556,1.534c-.061-.254-.114-.526-.184-.789-4.426-.28-8.764-2.454-12.2-5.118-5.057-3.909-8.685-9.351-12.848-14.137-3.812-4.382-8.177-8.273-13.8-10.1-4.873-1.578-10.473-1.42-14.592,1.937-3.593,2.945-5.022,7.712-4.776,12.226a20.158,20.158,0,0,0,5.907,13.076c4.014,4.058,9.255,6.669,14.557,8.633ZM349.954,369.56c-.929,4.233-.491,8.563-.745,12.839h.806c.307-5.258-.526-10.754,1.656-15.705a9.474,9.474,0,0,1,5.811-5.4,12.27,12.27,0,0,1,8.676.973c5.662,2.769,8.685,8.764,11.437,14.093,1.069,2.042,2.165,4.154,3.427,6.135h.947c-3.12-4.733-5.109-10.131-8.475-14.724-3.251-4.382-8.142-8.01-13.882-7.625-5.32.359-8.6,4.5-9.667,9.413Zm-51.13,12.717h1.034a22.4,22.4,0,0,0,2.471-6.6c1.262-5.819.876-11.84.473-17.73-.964-13.646-3.322-27.581-.333-41.139a45.82,45.82,0,0,1,6.38-15.609c3.225-4.82,7.888-9.351,13.523-11.192a11.753,11.753,0,0,1,9.194.429,12.778,12.778,0,0,1,5.416,5.96c2.848,6.065,1.087,12.927-1.63,18.694-5.32,11.253-13.952,20.736-18.238,32.532A40.876,40.876,0,0,0,319.2,380.1c.386.745.789,1.481,1.218,2.208h.955a40.211,40.211,0,0,1-4.662-11.157,39.315,39.315,0,0,1-.543-17.116c1.192-6.135,3.918-11.77,7.011-17.1s6.783-10.517,9.93-15.959,6.2-11.551,6.135-18.045c-.061-5.013-2.393-10.324-6.827-12.945-5.258-3.12-11.56-1-16.161,2.279-9.053,6.459-13.646,17.3-15.328,27.993-2.191,13.953.552,28.045,1.209,42.015.272,5.574.254,11.332-1.7,16.652A16.969,16.969,0,0,1,298.824,382.277ZM311.9,264.487a16.468,16.468,0,0,0-10.035-3.891c-.061.228-.123.473-.193.7a17.876,17.876,0,0,1,2.629.324c5.381,1.069,10.832,5.258,10.894,11.174.079,6.442-5.39,11.227-10.683,13.891-3.1,1.56-6.354,2.769-9.535,4.11-.053.28-.114.552-.167.876,2.016-.876,4.067-1.63,6.135-2.471,5.478-2.244,11-5.258,13.725-10.78a11.323,11.323,0,0,0-2.769-13.961Z"
              transform="translate(885.066 102.792)" fill="#fff"/>
        <path id="Path_5935" data-name="Path 5935"
              d="M368.1,231.08c37.984,29.158,77.589,78.675,78.211,107.229.587,28.22-15.267,25.416-17.931,24.54-28.22-8.764-62.225-87.071-74.828-118.946C341.034,212.29,358.667,223.868,368.1,231.08Z"
              transform="translate(878.342 102.571)" fill="#dd6a57"/>
        <path id="Path_5936" data-name="Path 5936"
              d="M428.873,287.624l-44.1,25s-28.606-50.648-35.407-74.241,2.743-23.076,24.022-5.013S428.873,287.624,428.873,287.624Z"
              transform="translate(878.592 102.906)" fill="#7ac3f0"/>
        <path id="Path_5937" data-name="Path 5937"
              d="M424.571,289.488c-16.967,11.919-33.47,19.772-36.809,21.744-.158.1-.289-.167-.131-.254,3.339-1.753,21.411-13.47,36.757-21.77C424.606,289.111,424.755,289.374,424.571,289.488Z"
              transform="translate(873.604 94.382)" fill="#263238"/>
        <path id="Path_5938" data-name="Path 5938"
              d="M389.981,318.192a26.382,26.382,0,0,0-2.629,1.183c-4.233-8.422-3.462-6.494-7.783-14.9q-3.164-6.135-6.345-12.331c-2.191-4.277-4.154-8.764-6.573-12.883a.108.108,0,1,0-.193.1c1.4,4.049,3.3,7.975,5.1,11.884-.394-.6-.771-1.227-1.209-1.814-.973-1.306-1.928-2.629-2.787-4-.14-.21-.491-.044-.359.175a44.072,44.072,0,0,1,2.287,4.058c.727,1.385,1.525,2.691,2.34,4.023s1.665,2.489,2.542,3.707l.315.456c1.157,2.445,2.279,4.9,3.506,7.318,4.242,8.475,8.606,15.144,8.764,15.1a22.9,22.9,0,0,0,3.2-1.858C390.227,318.341,390.1,318.183,389.981,318.192Z"
              transform="translate(876.213 95.616)" fill="#263238"/>
        <path id="Path_5939" data-name="Path 5939"
              d="M239.992,369.365c13.076-1.911,20.482-26.2,35-64.854,2.542-6.783-31.209-45.635-35.793-39.386-5.776,7.888-21.034,51.524-22.594,63.391C213.595,351.9,224.778,371.6,239.992,369.365Z"
              transform="translate(894.793 97.44)" fill="#dd6a57"/>
        <path id="Path_5940" data-name="Path 5940"
              d="M266.31,349.273c1.174-3.286,2.419-6.547,3.672-9.807l3.795-9.754c1.315-3.234,2.577-6.485,3.847-9.728q.973-2.436,1.876-4.882c.622-1.63,1.227-3.269,1.691-4.952a70.343,70.343,0,0,1-2.936,10.061c-1.148,3.3-2.419,6.564-3.663,9.825s-2.629,6.477-4,9.684S267.791,346.127,266.31,349.273Z"
              transform="translate(888.589 91.791)" fill="#263238"/>
        <path id="Path_5941" data-name="Path 5941"
              d="M228.63,288.2c1.832-13.269,5.574-31.779,10.315-35.661,4.978-4.067,23.058-17.677,28.273-19.483s28.492-10.666,32.769-8.194c3.427,1.981-.631,10.981-11.7,15.3-9.737,3.786-14.75,7.327-17.528,8.527s-9.641,10.421-7.8,14.487c1.1,2.393,8.072,5.206,12.41,3.243s5.407-10.517,10.359-14.592,13.7-3.558,14.207-1.2-2.384,3.462-6.854,11.49c-2.875,5.153-3.067,17.528-9.588,26.415-3.278,4.461-8.966,16.328-8.966,16.328Z"
              transform="translate(893.246 102.386)" fill="#dd6a57"/>
        <path id="Path_5942" data-name="Path 5942"
              d="M299.054,250.665a8.527,8.527,0,0,0,4.329-1.963,3.506,3.506,0,0,0,.99-1.753,3.586,3.586,0,0,0,0-1.1,1.683,1.683,0,0,0-.421-1.06c-.088-.061.044-.167.088-.079a4.576,4.576,0,0,0,.394.526,2.676,2.676,0,0,1,.254.5,2.866,2.866,0,0,1,.184,1.087,3.593,3.593,0,0,1-.876,2.2,5.96,5.96,0,0,1-4.978,1.753C299,250.8,299,250.682,299.054,250.665Z"
              transform="translate(884.548 99.884)" fill="#263238"/>
        <path id="Path_5943" data-name="Path 5943"
              d="M240.4,253.245c4.216-6.617,15-18.571,25.7-22.673,7.222-2.778,32.094,9.316,31.376,14.066s-4.969,4.776-11.262,4.032c-2.287-.272-14.408-4.619-16.477-2.077-2.962,3.663-6.731,16.152-6.731,16.152Z"
              transform="translate(891.791 101.677)" fill="#dd6a57"/>
        <path id="Path_5944" data-name="Path 5944"
              d="M302.46,243.16c-3.076-5.083-9.825-7.791-16.547-9.93-.105,0-.167.123-.061.158,1.709.543,12.664,5.574,16.538,9.86C302.434,243.291,302.5,243.212,302.46,243.16Z"
              transform="translate(886.18 101.298)" fill="#263238"/>
        <path id="Path_5945" data-name="Path 5945"
              d="M240.4,253.256c4.216-6.617,15-18.571,25.7-22.673,7.222-2.778,26.906,12.7,26.178,17.458s-6.818,5.136-13.567,2.8c-2.182-.762-9.492-5.9-11.56-3.357-2.962,3.655-10.193,12.734-10.193,12.734Z"
              transform="translate(891.791 101.666)" fill="#dd6a57"/>
        <path id="Path_5946" data-name="Path 5946"
              d="M263.861,254.476c.684-1.043.876-1.411,1.6-2.445s1.4-2.051,2.173-3.024a9.316,9.316,0,0,1,2.226-2.349,4.82,4.82,0,0,1,2.98-.6c2.34.219,4.452,1.7,6.442,2.84,2.217,1.271,6.81,3.33,10.333,2.954a7.012,7.012,0,0,0,2.778-.754,4.33,4.33,0,0,0,1.656-1.332c1.525-2.629-.386-5.539-2.331-7.634-3.637-3.9-8.527-6.722-13.269-9.045-1.166-.57-2.34-1.1-3.506-1.648a10.517,10.517,0,0,0-4.268-1.218c-2.445,0-6.45,2.471-7.686,3.225-.1.053-.167-.1-.079-.158,1.507-.938,5.258-3.988,9.167-3.795a12.462,12.462,0,0,1,4.11,1.385c1.376.587,2.734,1.227,4.075,1.893a56.851,56.851,0,0,1,7.52,4.443,23.5,23.5,0,0,1,6.135,5.811,6.853,6.853,0,0,1,.438,7.011c-1.078,1.753-3.383,2.226-4.435,2.366a11.926,11.926,0,0,1-3.111,0,49.621,49.621,0,0,1-6.766-1.972c-2.138-.876-4.067-2.3-6.266-2.962a4.119,4.119,0,0,0-3.19.219,10.8,10.8,0,0,0-2.384,2.173,33.014,33.014,0,0,0-3.979,4.724C263.94,255.081,263.615,254.932,263.861,254.476Z"
              transform="translate(889.013 101.76)" fill="#263238"/>
        <path id="Path_5947" data-name="Path 5947"
              d="M236.84,257.834c1.542-3.155,4.145-16.143,6.652-20.157s13.935-17.765,19.281-17.169c6.722.745-.272,12.848-3.786,17.835s-2.91,13.462-2.91,13.462Z"
              transform="translate(892.231 102.872)" fill="#dd6a57"/>
        <path id="Path_5948" data-name="Path 5948"
              d="M266.59,231.463c-1.253,1.578-2.358,3.33-3.444,5.022a39.432,39.432,0,0,0-3,4.943,17.4,17.4,0,0,0-1.306,5.53c-.088.938-.114,1.867-.123,2.8s.088,2.06.07,3.076a.088.088,0,1,0,.167,0,42.413,42.413,0,0,1,.727-5.565,23.444,23.444,0,0,1,1.674-5.548c1.569-3.506,3.865-6.661,5.46-10.158A.128.128,0,0,0,266.59,231.463Z"
              transform="translate(889.527 101.523)" fill="#263238"/>
        <path id="Path_5949" data-name="Path 5949"
              d="M258.877,257.88a16.144,16.144,0,0,0,.973,4.6,33.634,33.634,0,0,0,1.805,4.382,42.712,42.712,0,0,0,2.27,4.119,39.939,39.939,0,0,0,2.743,3.83,30.4,30.4,0,0,1,4.759,8.3A27.334,27.334,0,0,1,273,292.463a33.155,33.155,0,0,0-2.191-9.15,34.749,34.749,0,0,0-4.847-8.019,39.047,39.047,0,0,1-2.769-3.9,36.309,36.309,0,0,1-2.191-4.268C259.8,264.208,258.675,261.088,258.877,257.88Z"
              transform="translate(889.51 98.251)" fill="#263238"/>
        <path id="Path_5950" data-name="Path 5950"
              d="M313.58,236.4a61.66,61.66,0,0,0,.876,6.135,30.931,30.931,0,0,0,1.429,5.425c1.253,3.164,3.646,6.135,7.336,6.95a13.049,13.049,0,0,0,9.947-2.13,33.774,33.774,0,0,0,7.625-7.651q2.042-2.577,3.83-5.311c.6-.929,1.209-1.84,1.753-2.8s1.06-1.919,1.674-2.831c.053-.079.21,0,.167.061-1.192,2.156-4.768,8.992-5.96,10.683-2.182,3.085-4.557,6.231-7.721,8.51a14.671,14.671,0,0,1-10.622,2.892,10.762,10.762,0,0,1-8.256-6.459,22.217,22.217,0,0,1-1.586-6.328c-.3-2.384-.456-4.785-.561-7.178C313.528,236.378,313.58,236.378,313.58,236.4Z"
              transform="translate(882.755 101.182)" fill="#263238"/>
        <path id="Path_5951" data-name="Path 5951"
              d="M325.141,243.039c8.045-.219,17.966-15.214,20.613-25.933.175-.736-9.307-25.688-10.675-30.832-.3-1.052-30.21,16.406-30.21,16.406s6.038,9.93,8.361,18.9C313.415,222.338,317.359,243.249,325.141,243.039Z"
              transform="translate(883.823 107.107)" fill="#dd6a57"/>
        <path id="Path_5952" data-name="Path 5952"
              d="M304.87,202.682s6.038,9.93,8.361,18.913c0,.175.3,1.481.762,3.374,14.96-5.5,22.226-17.528,25.556-25.617-2.042-5.662-3.926-10.981-4.47-13.059C334.782,185.224,304.87,202.682,304.87,202.682Z"
              transform="translate(883.823 107.104)" fill="#263238"/>
        <path id="Path_5953" data-name="Path 5953"
              d="M284.21,138.65c-1.919.324-8.361,15.626-7.423,22.322s5.311,19.667,7.309,19.605S285.726,138.4,284.21,138.65Z"
              transform="translate(887.305 112.987)" fill="#263238"/>
        <path id="Path_5954" data-name="Path 5954"
              d="M330.8,143.71c3.231,5.113,5.6,16,6.477,27.135.883,11.175.141,22.6-2.971,27.491-8.861,13.874-27.87,20.157-40.8,8.51-12.541-11.306-15.644-56.467-8.4-65.626C295.775,127.733,321.042,128.268,330.8,143.71Z"
              transform="translate(886.74 113.86)" fill="#dd6a57"/>
        <path id="Path_5955" data-name="Path 5955"
              d="M309.222,170.066a30.145,30.145,0,0,0,3.076.272,5.055,5.055,0,0,0,3.2-.316,1.6,1.6,0,0,0,.561-1.867c-.613-1.376-2.033-1.849-3.453-2.016a5.819,5.819,0,0,0-4.084.876,1.7,1.7,0,0,0,.7,3.05Z"
              transform="translate(883.458 109.598)" fill="#263238"/>
        <path id="Path_5956" data-name="Path 5956"
              d="M310.993,179.246c0-.1.193.088.2.184.167,2.34.754,4.987,2.936,5.548.07,0,.079.131,0,.131C311.484,185.013,310.739,181.481,310.993,179.246Z"
              transform="translate(883.072 107.973)" fill="#263238"/>
        <path id="Path_5957" data-name="Path 5957"
              d="M312.787,176.224c3.725-.675,4.785,6.818,1.341,7.432S309.676,176.785,312.787,176.224Z"
              transform="translate(883.075 108.348)" fill="#263238"/>
        <path id="Path_5958" data-name="Path 5958"
              d="M295.441,181c0-.088-.167.14-.149.228.4,2.314.473,5.022-1.516,6.091-.061,0,0,.149,0,.131C296.327,186.755,296.186,183.153,295.441,181Z"
              transform="translate(885.198 107.756)" fill="#263238"/>
        <path id="Path_5959" data-name="Path 5959"
              d="M292.568,178.609c-3.769.254-3,7.774.491,7.546S295.732,178.408,292.568,178.609Z"
              transform="translate(885.652 108.049)" fill="#263238"/>
        <path id="Path_5960" data-name="Path 5960"
              d="M288.691,173.285a30.359,30.359,0,0,0,2.866-1.192,5.146,5.146,0,0,0,2.691-1.753,1.613,1.613,0,0,0-.368-1.919c-1.183-.938-2.673-.692-4.014-.184a5.828,5.828,0,0,0-3.208,2.708,1.7,1.7,0,0,0,2.033,2.34Z"
              transform="translate(886.093 109.386)" fill="#263238"/>
        <path id="Path_5961" data-name="Path 5961"
              d="M315.832,200.883c-.473.622-.876,1.446-1.753,1.639a6.135,6.135,0,0,1-2.577-.228.079.079,0,0,0-.088.131,3.155,3.155,0,0,0,3.129.876,2.5,2.5,0,0,0,1.534-2.3A.14.14,0,0,0,315.832,200.883Z"
              transform="translate(883.018 105.301)" fill="#263238"/>
        <path id="Path_5962" data-name="Path 5962"
              d="M310.534,190.022a7.993,7.993,0,0,1-4.776,4.268,10.183,10.183,0,0,1-2.822.535,2.918,2.918,0,0,1-.552,0,5.086,5.086,0,0,1-.517,0,.587.587,0,0,1-.543-.456h0a1.062,1.062,0,0,1,0-.237h0v-.2c-.307-1.753-.517-4.522-.517-4.522-.6.421-3.725,2.384-3.8,1.446-.631-7.791-1.341-16.45-.333-24.329a.219.219,0,0,1,.429,0c.876,7.467.5,15.039,1.3,22.541a13.918,13.918,0,0,1,3.567-1.656c.263,0,.315,5.258.517,6.091a.166.166,0,0,0,0,.079c3.05,0,5.188-1.271,7.809-3.7C310.437,189.706,310.639,189.82,310.534,190.022Z"
              transform="translate(884.899 109.563)" fill="#263238"/>
        <path id="Path_5963" data-name="Path 5963"
              d="M334.393,171.985c-6.03,1.358-9.939-5.031-13.3-14.242-1.972-5.39-1.981-16.652-1.981-16.652s-14.619,9.4-23.567,9.8-17.528-6.2-18.054-13.146c-.447-6,8.554-15.083,21.682-17.414,9.158-1.621,25.705,3.681,33.9,12.664,0,0,12.331,3.988,11.779,12.971S341.238,170.442,334.393,171.985Z"
              transform="translate(887.209 115.287)" fill="#263238"/>
        <path id="Path_5964" data-name="Path 5964"
              d="M339.592,173.634c-7.809,2.778-13.681-8.764-14.724-15.03-1.087-6.529.543-13.5.824-20.044h-.053c-1.683,8.124-3.313,18.335.421,26.091,2.349,4.89,7.23,12.839,13.69,9.413C339.969,173.941,339.838,173.546,339.592,173.634Z"
              transform="translate(881.484 112.998)" fill="#263238"/>
        <path id="Path_5965" data-name="Path 5965"
              d="M354.016,144.847c-1.849-5.258-8.712-9.737-14.023-10.307a.044.044,0,1,0,0,.088c6.468,1.42,14.566,7.581,13.576,14.759-.8,5.732-2.48,13.365-5.662,18.256-.079.123.105.237.193.123,2.577-3.357,3.357-7.4,4.382-11.393C353.332,152.839,355.261,148.484,354.016,144.847Z"
              transform="translate(879.488 113.495)" fill="#263238"/>
        <path id="Path_5966" data-name="Path 5966"
              d="M336.881,133.344c-8.659-9.465-25.951-19.211-38.921-14.215v.061c13.935-4.075,28.4,6.31,38.483,14.654C336.759,134.089,337.127,133.607,336.881,133.344Z"
              transform="translate(884.677 115.567)" fill="#263238"/>
        <path id="Path_5967" data-name="Path 5967"
              d="M338,178.718s4.689-12.647,10.245-11.253,3.979,18.4-1.166,21.972a5.995,5.995,0,0,1-8.58-1.078Z"
              transform="translate(879.729 109.439)" fill="#dd6a57"/>
        <path id="Path_5968" data-name="Path 5968"
              d="M348.162,173c.1,0,.14.088.07.149-3.567,2.629-4.706,6.915-5.171,11.139.8-1.753,2.209-3.024,4.557-2.13.123.044.07.237-.053.237a3.7,3.7,0,0,0-3.6,2.27,18.227,18.227,0,0,0-1.043,3.663c-.1.412-.789.386-.762-.061a.4.4,0,0,1,0-.1C340.73,183.123,342.842,174.963,348.162,173Z"
              transform="translate(879.268 108.741)" fill="#263238"/>
        <path id="Path_5969" data-name="Path 5969"
              d="M314.773,243.973l18.4,54.872c.719,1.6,0,2.989-1.613,3.111l-28.887,2.182a4.68,4.68,0,0,1-4.233-2.629l-18.4-54.872c-.719-1.6,0-3,1.613-3.12l28.869-2.217a4.7,4.7,0,0,1,4.251,2.673Z"
              transform="translate(886.926 100.3)" fill="#37474f"/>
        <path id="Path_5970" data-name="Path 5970"
              d="M310.854,244.234l18.4,54.872c.719,1.6,0,3-1.613,3.12l-28.878,2.217a4.7,4.7,0,0,1-4.233-2.673L276.13,246.9c-.727-1.6,0-2.989,1.613-3.111l28.913-2.217a4.68,4.68,0,0,1,4.2,2.664Z"
              transform="translate(887.41 100.267)" fill="#455a64"/>
        <path id="Path_5971" data-name="Path 5971"
              d="M307,247.839a2.463,2.463,0,1,0,2.208-2.691A2.463,2.463,0,0,0,307,247.839Z"
              transform="translate(883.562 99.826)" fill="#263238"/>
        <path id="Path_5972" data-name="Path 5972"
              d="M436.378,370.978c-12.568,1.832-28.431-7.8-69.534-37.107-5.7-4.084,12.13-51.91,18.4-47.9,7.932,5.057,37.616,26.424,39.587,28.264C441.514,329.787,444.923,369.664,436.378,370.978Z"
              transform="translate(876.301 94.809)" fill="#dd6a57"/>
        <path id="Path_5973" data-name="Path 5973"
              d="M391.316,297.275s-11.8-16.161-20.622-22.743C358.871,265.768,345.041,263,339.143,262.2c-12.27-1.665-42.944,2.778-43.251,11.858-.245,8.221,30.955,2.086,30.955,2.086s-32.839,1-31.314,10.946,37.353.78,37.353.78-33.724,1.753-30.525,11.8c2.419,7.563,35.328,1.078,35.328,1.078s-28.974,1.753-26.827,9.641c2.384,8.712,33.128,4.636,33.128,4.636,8.913,19.106,20.92,24.6,29.947,27.484C376.119,343.2,391.316,297.275,391.316,297.275Z"
              transform="translate(884.983 97.76)" fill="#dd6a57"/>
        <path id="Path_5974" data-name="Path 5974"
              d="M338.936,276.939c-3.865,0-7.774-.07-11.621.245s-7.695.78-11.5,1.455a66.591,66.591,0,0,0-14.548,4.049c8.554-2.761,22.313-4.128,26.17-4.452s7.669-.833,11.516-1.157C339.05,277.07,339.024,276.939,338.936,276.939Z"
              transform="translate(884.27 95.896)" fill="#263238"/>
        <path id="Path_5975" data-name="Path 5975"
              d="M341.72,292.78c-4.934.184-9.833.184-14.759.587s-9.518,1.218-14.382,1.954c-.377.053-.219.237.158.193,4.882-.543,9.448-.666,14.338-1.148s9.772-1.166,14.662-1.472C341.843,292.894,341.843,292.78,341.72,292.78Z"
              transform="translate(882.897 93.938)" fill="#263238"/>
        <path id="Path_5976" data-name="Path 5976"
              d="M346.49,306.129c-7.555-.105-15.118,1.183-22.506,2.629-.368.07-.14.289.237.237,7.467-1.017,13.313-1.867,22.27-2.629C346.621,306.375,346.648,306.129,346.49,306.129Z"
              transform="translate(881.484 92.289)" fill="#263238"/>
        <path id="Path_5977" data-name="Path 5977"
              d="M420.25,308.63c3.26,2.147,6.4,4.47,9.439,6.932a57.7,57.7,0,0,1,4.382,3.882,23.908,23.908,0,0,1,3.777,4.566,61.956,61.956,0,0,1,5.074,10.6,53.032,53.032,0,0,1,2.962,11.332,51.828,51.828,0,0,0-1.578-5.618c-.6-1.849-1.271-3.672-2.016-5.469a66.675,66.675,0,0,0-5.188-10.377,22.279,22.279,0,0,0-3.593-4.47c-1.358-1.376-2.822-2.629-4.277-3.944s-2.962-2.524-4.47-3.76S421.784,309.831,420.25,308.63Z"
              transform="translate(869.563 91.979)" fill="#263238"/>
        <g id="freepik--Icons--inject-13" transform="translate(968.162 181.796)">
            <path id="Path_5978" data-name="Path 5978"
                  d="M271.316,110.365s-3.6,28.834-9.527,35.328c-7.108,7.783-12.27,6.643-15.136,10.657h0c-2.875-4.023-8.028-2.875-15.144-10.666C225.593,139.2,222,110.365,222,110.365c15.6-7.572,24.662-16.065,24.662-16.065h0C246.934,94.572,255.952,102.906,271.316,110.365Z"
                  transform="translate(-74.097 -63.328)" fill="#7ac3f0"/>
            <path id="Path_5979" data-name="Path 5979"
                  d="M246.653,94.309V156.35h0c-2.875-4.023-8.028-2.875-15.144-10.666C225.593,139.2,222,110.365,222,110.365c15.6-7.572,24.662-16.065,24.662-16.065Z"
                  transform="translate(-74.097 -63.328)" opacity="0.2"/>
            <path id="Path_5980" data-name="Path 5980"
                  d="M274.792,110.366s-3.6,28.834-9.527,35.328c-7.108,7.783-12.27,6.643-15.136,10.657V94.31C250.41,94.573,259.429,102.908,274.792,110.366Z"
                  transform="translate(-77.573 -63.329)" opacity="0.1"/>
            <path id="Path_5981" data-name="Path 5981"
                  d="M268.025,113.367s-3.041,24.364-8.045,29.842c-6,6.591-10.368,5.618-12.787,9.009-2.428-3.392-6.783-2.419-12.8-9.009-5-5.478-8.037-29.842-8.037-29.842A92.368,92.368,0,0,0,247.192,99.8,90.637,90.637,0,0,0,268.025,113.367Z"
                  transform="translate(-74.636 -64.007)" fill="#7ac3f0"/>
            <path id="Path_5982" data-name="Path 5982"
                  d="M247.194,99.808v52.409h0c-2.419-3.392-6.783-2.428-12.787-9.009-5-5.486-8.037-29.851-8.037-29.851A92.162,92.162,0,0,0,247.194,99.79Z"
                  transform="translate(-74.637 -64.006)" opacity="0.1"/>
            <rect id="Rectangle_669" data-name="Rectangle 669" width="18.668" height="16.932"
                  transform="translate(163.223 57.361)" fill="#fff"/>
            <path id="Path_5983" data-name="Path 5983"
                  d="M256.542,128.188h-1.9v-7.563a5.565,5.565,0,0,0-11.13,0v7.563h-1.9v-7.563a7.467,7.467,0,1,1,14.9,0Z"
                  transform="translate(-76.518 -65.595)" fill="#fff"/>
            <path id="Path_5984" data-name="Path 5984"
                  d="M250.524,134.066l.6,2.857H248.57l.6-2.857a1.28,1.28,0,1,1,1.35,0Z"
                  transform="translate(-77.381 -67.95)" fill="#37474f"/>
            <path id="Path_5985" data-name="Path 5985"
                  d="M247.007,233.8h-3.734v-.666h3.409v.228h.324Zm-7.239,0h-3.506v-.666h3.506Zm-7.011,0h-3.506v-.666h3.506Zm-7.011,0H222.24v-.666h3.506Zm21.262-3.935h-.657V226.36h.657Zm0-7.011h-.657v-3.506h.657Zm0-7.011h-.657v-3.506h.657Zm0-7.011h-.657v-3.506h.657Zm0-7.011h-.657v-3.506h.657Zm0-7.011h-.657V191.3h.657Zm0-7.011h-.657v-3.506h.657Zm0-7.011h-.657v-3.506h.657Zm0-7.011h-.657V170.27h.657Z"
                  transform="translate(-74.127 -72.717)" fill="#7ac3f0"/>
            <path id="Path_5986" data-name="Path 5986"
                  d="M251.4,169.241a1.481,1.481,0,1,0-1.481,1.481,1.481,1.481,0,0,0,1.481-1.481Z"
                  transform="translate(-77.365 -72.407)" fill="#7ac3f0"/>
            <path id="Path_5987" data-name="Path 5987" d="M98.209,116.689H53.24V58.96H86.631L98.209,69.968Z"
                  transform="translate(-53.24 -58.96)" fill="#fff"/>
            <path id="Path_5988" data-name="Path 5988" d="M91.34,58.96l11.577,11.008H91.34Z"
                  transform="translate(-57.949 -58.96)" fill="#dbdbdb"/>
            <rect id="Rectangle_670" data-name="Rectangle 670" width="25.004" height="1.481"
                  transform="translate(29.395 11.165) rotate(180)" fill="#dbdbdb"/>
            <rect id="Rectangle_671" data-name="Rectangle 671" width="25.004" height="1.481"
                  transform="translate(29.395 14.908) rotate(180)" fill="#dbdbdb"/>
            <rect id="Rectangle_672" data-name="Rectangle 672" width="25.004" height="1.481"
                  transform="translate(29.395 18.659) rotate(180)" fill="#dbdbdb"/>
            <rect id="Rectangle_673" data-name="Rectangle 673" width="36.634" height="1.481"
                  transform="translate(41.025 22.401) rotate(180)" fill="#dbdbdb"/>
            <rect id="Rectangle_674" data-name="Rectangle 674" width="36.634" height="1.481"
                  transform="translate(41.025 26.143) rotate(180)" fill="#dbdbdb"/>
            <rect id="Rectangle_675" data-name="Rectangle 675" width="36.634" height="1.481"
                  transform="translate(41.025 29.886) rotate(180)" fill="#dbdbdb"/>
            <rect id="Rectangle_676" data-name="Rectangle 676" width="36.634" height="1.481"
                  transform="translate(41.025 33.628) rotate(180)" fill="#dbdbdb"/>
            <rect id="Rectangle_677" data-name="Rectangle 677" width="36.634" height="1.481"
                  transform="translate(41.025 37.361) rotate(180)" fill="#dbdbdb"/>
            <rect id="Rectangle_678" data-name="Rectangle 678" width="36.634" height="1.481"
                  transform="translate(41.025 41.104) rotate(180)" fill="#dbdbdb"/>
            <rect id="Rectangle_679" data-name="Rectangle 679" width="36.634" height="1.481"
                  transform="translate(41.025 44.846) rotate(180)" fill="#dbdbdb"/>
            <rect id="Rectangle_680" data-name="Rectangle 680" width="36.634" height="1.481"
                  transform="translate(41.025 48.588) rotate(180)" fill="#dbdbdb"/>
            <rect id="Rectangle_681" data-name="Rectangle 681" width="36.634" height="1.481"
                  transform="translate(41.025 52.33) rotate(180)" fill="#dbdbdb"/>
            <circle id="Ellipse_2282" data-name="Ellipse 2282" cx="7.888" cy="7.888" r="7.888"
                    transform="matrix(0.923, -0.385, 0.385, 0.923, 34.657, 51.458)" fill="#7ac3f0"/>
            <rect id="Rectangle_682" data-name="Rectangle 682" width="7.818" height="7.099"
                  transform="translate(41.06 53.715)" fill="#fff"/>
            <path id="Path_5989" data-name="Path 5989"
                  d="M107.24,121.853h-.8v-3.164a2.331,2.331,0,1,0-4.663,0v3.164H101v-3.164a3.129,3.129,0,0,1,6.258,0Z"
                  transform="translate(-59.143 -65.955)" fill="#fff"/>
            <path id="Path_5990" data-name="Path 5990"
                  d="M104.78,124.21l.324,1.56H103.72l.324-1.56a.692.692,0,1,1,.736,0Z"
                  transform="translate(-59.479 -66.866)" fill="#263238"/>
            <path id="Path_5991" data-name="Path 5991"
                  d="M136.072,151.729h-.622v-3.506h.657Zm0-7.011h-.622v-3.506h.657Zm0-7.011h-.622V134.2h.657Zm0-7.011h-.622v-3.506h.657Zm0-7.011h-.622v-3.506h.657Zm0-7.011h-.622v-3.506h.657Zm0-7.011h-.622v-3.506h.657Zm0-7.011h-.622V99.144h.657Zm-3.251-3.742h-3.506V98.25h3.506Zm-7.011,0H122.3V98.25h3.506Zm-7.011,0h-3.506V98.25H118.8Zm-7.011,0H110.27V98.25h1.516Z"
                  transform="translate(-60.288 -63.816)" fill="#7ac3f0"/>
            <path id="Path_5992" data-name="Path 5992"
                  d="M110.1,97a1.49,1.49,0,1,0,1.481,1.455A1.49,1.49,0,0,0,110.1,97Z"
                  transform="translate(-60.082 -63.661)" fill="#7ac3f0"/>
            <path id="Path_5993" data-name="Path 5993"
                  d="M164.819,375.086h-2.06v-.622h2.06Zm-5.565,0h-3.506v-.622h3.506Zm-7.011,0h-3.506v-.622h3.506Zm-7.011,0h-3.506v-.622h3.506Zm-5.609-1.4H139v-3.506h.657Zm0-7.011H139v-3.506h.657Zm0-7.011H139v-3.506h.657Zm0-7.011H139v-3.506h.657Zm0-7.011H139v-3.506h.657Zm0-7.011H139v-3.506h.657Zm0-7.011H139V328.11h.657Z"
                  transform="translate(-63.839 -92.224)" fill="#7ac3f0"/>
            <circle id="Ellipse_2283" data-name="Ellipse 2283" cx="1.481" cy="1.481" r="1.481"
                    transform="translate(99.42 281.056)" fill="#7ac3f0"/>
            <rect id="Rectangle_683" data-name="Rectangle 683" width="56.003" height="33.794"
                  transform="translate(106.081 272.923)" fill="#455a64"/>
            <path id="Path_5997" data-name="Path 5997" d="M0,0H15.653V20.017H0Z" transform="translate(110.48 277.174)"
                  fill="#fff"/>
            <circle id="Ellipse_2284" data-name="Ellipse 2284" cx="3.707" cy="3.707" r="3.707"
                    transform="translate(114.599 281.477)" fill="#455a64"/>
            <path id="Path_5994" data-name="Path 5994"
                  d="M194.953,397.043H179.3s.429-3.734,1.192-4.847,2.778-2.366,6.634-2.366,5.872,1.253,6.634,2.366S194.953,397.043,194.953,397.043Z"
                  transform="translate(-68.82 -99.852)" fill="#455a64"/>
            <rect id="Rectangle_685" data-name="Rectangle 685" width="25.766" height="0.973"
                  transform="translate(130.182 277.174)" fill="#fff"/>
            <rect id="Rectangle_686" data-name="Rectangle 686" width="25.766" height="0.973"
                  transform="translate(130.182 286.691)" fill="#fff"/>
            <rect id="Rectangle_687" data-name="Rectangle 687" width="25.766" height="0.973"
                  transform="translate(130.182 289.496)" fill="#fff"/>
            <rect id="Rectangle_688" data-name="Rectangle 688" width="25.766" height="0.973"
                  transform="translate(130.182 292.292)" fill="#fff"/>
            <rect id="Rectangle_689" data-name="Rectangle 689" width="25.766" height="0.973"
                  transform="translate(130.182 295.096)" fill="#fff"/>
            <rect id="Rectangle_690" data-name="Rectangle 690" width="25.766" height="0.973"
                  transform="translate(130.182 297.892)" fill="#fff"/>
            <rect id="Rectangle_691" data-name="Rectangle 691" width="20.867" height="0.973"
                  transform="translate(130.182 279.978)" fill="#fff"/>
            <circle id="Ellipse_2285" data-name="Ellipse 2285" cx="7.888" cy="7.888" r="7.888"
                    transform="matrix(0.923, -0.385, 0.385, 0.923, 151.768, 302.48)" fill="#7ac3f0"/>
            <rect id="Rectangle_692" data-name="Rectangle 692" width="7.818" height="7.099"
                  transform="translate(158.175 304.728)" fill="#fff"/>
            <path id="Path_5995" data-name="Path 5995"
                  d="M240.868,408.263h-.8V405.1a2.331,2.331,0,1,0-4.662,0v3.164h-.8V405.1a3.129,3.129,0,0,1,6.258,0Z"
                  transform="translate(-75.655 -101.352)" fill="#fff"/>
            <path id="Path_5996" data-name="Path 5996"
                  d="M238.409,410.62l.324,1.56H237.34l.333-1.56a.692.692,0,1,1,.736,0Z"
                  transform="translate(-75.993 -102.263)" fill="#263238"/>
        </g>
    </g>
</svg>
